# Blender v2.92.0 OBJ File: ''
# www.blender.org
o ArrowCharacter.Merged_Plane-tex
v -0.050000 0.750000 0.050000
v -0.050000 0.650000 -0.050000
v -0.050000 0.650000 0.050000
v -0.050000 0.750000 -0.050000
v -0.050000 0.550000 -0.150000
v -0.050000 0.550000 -0.050000
v -0.050000 0.650000 -0.150000
v -0.050000 0.650000 0.150000
v -0.050000 0.550000 0.050000
v -0.050000 0.550000 0.150000
v -0.050000 0.050000 -0.050000
v -0.050000 -0.750000 -0.150000
v -0.050000 -0.750000 -0.050000
v -0.050000 0.050000 -0.150000
v -0.050000 0.050000 0.150000
v -0.050000 -0.750000 0.050000
v -0.050000 -0.750000 0.150000
v -0.050000 0.050000 0.050000
v -0.150000 0.650000 0.050000
v -0.150000 0.550000 -0.050000
v -0.150000 0.550000 0.050000
v -0.150000 0.650000 -0.050000
v -0.150000 0.450000 -0.150000
v -0.150000 0.450000 -0.050000
v -0.150000 0.550000 -0.150000
v -0.150000 0.550000 0.150000
v -0.150000 0.450000 0.050000
v -0.150000 0.450000 0.150000
v -0.150000 0.050000 0.050000
v -0.150000 -0.750000 -0.050000
v -0.150000 -0.750000 0.050000
v -0.150000 0.050000 -0.050000
v -0.250000 0.550000 0.050000
v -0.250000 0.450000 -0.050000
v -0.250000 0.450000 0.050000
v -0.250000 0.550000 -0.050000
v -0.250000 0.350000 -0.150000
v -0.250000 0.350000 -0.050000
v -0.250000 0.450000 -0.150000
v -0.250000 0.450000 0.150000
v -0.250000 0.350000 0.050000
v -0.250000 0.350000 0.150000
v -0.350000 0.450000 0.050000
v -0.350000 0.350000 -0.050000
v -0.350000 0.350000 0.050000
v -0.350000 0.450000 -0.050000
v -0.350000 0.250000 -0.150000
v -0.350000 0.250000 -0.050000
v -0.350000 0.350000 -0.150000
v -0.350000 0.350000 0.150000
v -0.350000 0.250000 0.050000
v -0.350000 0.250000 0.150000
v -0.450000 0.350000 0.050000
v -0.450000 0.250000 -0.050000
v -0.450000 0.250000 0.050000
v -0.450000 0.350000 -0.050000
v -0.450000 0.150000 -0.150000
v -0.450000 0.150000 -0.050000
v -0.450000 0.250000 -0.150000
v -0.450000 0.250000 0.150000
v -0.450000 0.150000 0.050000
v -0.450000 0.150000 0.150000
v -0.550000 0.250000 0.050000
v -0.550000 0.150000 -0.050000
v -0.550000 0.150000 0.050000
v -0.550000 0.250000 -0.050000
v -0.550000 0.050000 -0.150000
v -0.550000 0.050000 -0.050000
v -0.550000 0.150000 -0.150000
v -0.550000 0.150000 0.150000
v -0.550000 0.050000 0.050000
v -0.550000 0.050000 0.150000
v -0.650000 0.150000 0.050000
v -0.650000 0.050000 -0.050000
v -0.650000 0.050000 0.050000
v -0.650000 0.150000 -0.050000
v 0.050000 0.750000 0.050000
v 0.050000 0.650000 -0.050000
v 0.050000 0.650000 0.050000
v 0.050000 0.750000 -0.050000
v 0.050000 0.550000 -0.150000
v 0.050000 0.550000 -0.050000
v 0.050000 0.650000 -0.150000
v 0.050000 0.650000 0.150000
v 0.050000 0.550000 0.050000
v 0.050000 0.550000 0.150000
v 0.050000 0.050000 -0.050000
v 0.050000 -0.750000 -0.150000
v 0.050000 -0.750000 -0.050000
v 0.050000 0.050000 -0.150000
v 0.050000 0.050000 0.150000
v 0.050000 -0.750000 0.050000
v 0.050000 -0.750000 0.150000
v 0.050000 0.050000 0.050000
v 0.150000 0.650000 0.050000
v 0.150000 0.550000 -0.050000
v 0.150000 0.550000 0.050000
v 0.150000 0.650000 -0.050000
v 0.150000 0.450000 -0.150000
v 0.150000 0.450000 -0.050000
v 0.150000 0.550000 -0.150000
v 0.150000 0.550000 0.150000
v 0.150000 0.450000 0.050000
v 0.150000 0.450000 0.150000
v 0.150000 0.050000 0.050000
v 0.150000 -0.750000 -0.050000
v 0.150000 -0.750000 0.050000
v 0.150000 0.050000 -0.050000
v 0.250000 0.550000 0.050000
v 0.250000 0.450000 -0.050000
v 0.250000 0.450000 0.050000
v 0.250000 0.550000 -0.050000
v 0.250000 0.350000 -0.150000
v 0.250000 0.350000 -0.050000
v 0.250000 0.450000 -0.150000
v 0.250000 0.450000 0.150000
v 0.250000 0.350000 0.050000
v 0.250000 0.350000 0.150000
v 0.350000 0.450000 0.050000
v 0.350000 0.350000 -0.050000
v 0.350000 0.350000 0.050000
v 0.350000 0.450000 -0.050000
v 0.350000 0.250000 -0.150000
v 0.350000 0.250000 -0.050000
v 0.350000 0.350000 -0.150000
v 0.350000 0.350000 0.150000
v 0.350000 0.250000 0.050000
v 0.350000 0.250000 0.150000
v 0.450000 0.350000 0.050000
v 0.450000 0.250000 -0.050000
v 0.450000 0.250000 0.050000
v 0.450000 0.350000 -0.050000
v 0.450000 0.150000 -0.150000
v 0.450000 0.150000 -0.050000
v 0.450000 0.250000 -0.150000
v 0.450000 0.250000 0.150000
v 0.450000 0.150000 0.050000
v 0.450000 0.150000 0.150000
v 0.550000 0.250000 0.050000
v 0.550000 0.150000 -0.050000
v 0.550000 0.150000 0.050000
v 0.550000 0.250000 -0.050000
v 0.550000 0.050000 -0.150000
v 0.550000 0.050000 -0.050000
v 0.550000 0.150000 -0.150000
v 0.550000 0.150000 0.150000
v 0.550000 0.050000 0.050000
v 0.550000 0.050000 0.150000
v 0.650000 0.150000 0.050000
v 0.650000 0.050000 -0.050000
v 0.650000 0.050000 0.050000
v 0.650000 0.150000 -0.050000
vt 0.125088 0.874912
vt 0.249823 0.874912
vt 0.125088 0.750177
vt 0.249823 0.874912
vt 0.125088 0.750177
vt 0.125088 0.874912
vt 0.249823 0.874912
vt 0.125088 0.750177
vt 0.249823 0.874912
vt 0.125088 0.750177
vt 0.125088 0.874912
vt 0.249823 0.874912
vt 0.125088 0.750177
vt 0.249823 0.874912
vt 0.125088 0.750177
vt 0.125088 0.874912
vt 0.249823 0.874912
vt 0.125088 0.750177
vt 0.249823 0.874912
vt 0.125088 0.750177
vt 0.125088 0.874912
vt 0.249823 0.874912
vt 0.125088 0.750177
vt 0.249823 0.874912
vt 0.125088 0.750177
vt 0.125088 0.874912
vt 0.249823 0.874912
vt 0.125088 0.750177
vt 0.249823 0.874912
vt 0.125088 0.750177
vt 0.125088 0.874912
vt 0.249823 0.874912
vt 0.125088 0.750177
vt 0.249823 0.874912
vt 0.125088 0.750177
vt 0.125088 0.874912
vt 0.249823 0.874912
vt 0.125088 0.750177
vt 0.249823 0.874912
vt 0.125088 0.750177
vt 0.125088 0.874912
vt 0.249823 0.874912
vt 0.125088 0.750177
vt 0.249823 0.874912
vt 0.125088 0.750177
vt 0.125088 0.874912
vt 0.249823 0.874912
vt 0.125088 0.750177
vt 0.249823 0.874912
vt 0.125088 0.750177
vt 0.125088 0.874912
vt 0.249823 0.874912
vt 0.125088 0.750177
vt 0.249823 0.874912
vt 0.125088 0.750177
vt 0.125088 0.874912
vt 0.249823 0.874912
vt 0.125088 0.750177
vt 0.249823 0.874912
vt 0.125088 0.750177
vt 0.125088 0.874912
vt 0.249823 0.874912
vt 0.125088 0.750177
vt 0.249823 0.874912
vt 0.125088 0.750177
vt 0.125088 0.874912
vt 0.249823 0.874912
vt 0.125088 0.750177
vt 0.249823 0.874912
vt 0.125088 0.750177
vt 0.125088 0.874912
vt 0.249823 0.874912
vt 0.125088 0.750177
vt 0.249823 0.874912
vt 0.125088 0.750177
vt 0.125088 0.874912
vt 0.249823 0.874912
vt 0.125088 0.750177
vt 0.249823 0.874912
vt 0.125088 0.750177
vt 0.125088 0.874912
vt 0.249823 0.874912
vt 0.125088 0.750177
vt 0.249823 0.874912
vt 0.125088 0.750177
vt 0.125088 0.874912
vt 0.249823 0.874912
vt 0.125088 0.750177
vt 0.249823 0.874912
vt 0.125088 0.750177
vt 0.125088 0.874912
vt 0.249823 0.874912
vt 0.125088 0.750177
vt 0.249823 0.874912
vt 0.125088 0.750177
vt 0.125088 0.874912
vt 0.249823 0.874912
vt 0.125088 0.750177
vt 0.249823 0.874912
vt 0.125088 0.750177
vt 0.125088 0.874912
vt 0.249823 0.874912
vt 0.125088 0.750177
vt 0.249823 0.874912
vt 0.125088 0.750177
vt 0.125088 0.874912
vt 0.249823 0.874912
vt 0.125088 0.750177
vt 0.249823 0.874912
vt 0.125088 0.750177
vt 0.249823 0.874912
vt 0.125088 0.874912
vt 0.125088 0.750177
vt 0.249823 0.874912
vt 0.125088 0.750177
vt 0.249823 0.874912
vt 0.125088 0.874912
vt 0.125088 0.750177
vt 0.249823 0.874912
vt 0.125088 0.750177
vt 0.249823 0.874912
vt 0.125088 0.874912
vt 0.125088 0.750177
vt 0.249823 0.874912
vt 0.125088 0.750177
vt 0.249823 0.874912
vt 0.125088 0.874912
vt 0.125088 0.750177
vt 0.249823 0.874912
vt 0.125088 0.750177
vt 0.249823 0.874912
vt 0.125088 0.874912
vt 0.125088 0.750177
vt 0.249823 0.874912
vt 0.125088 0.750177
vt 0.249823 0.874912
vt 0.125088 0.874912
vt 0.125088 0.750177
vt 0.249823 0.874912
vt 0.125088 0.750177
vt 0.249823 0.874912
vt 0.125088 0.874912
vt 0.125088 0.750177
vt 0.249823 0.874912
vt 0.125088 0.750177
vt 0.249823 0.874912
vt 0.125088 0.874912
vt 0.125088 0.750177
vt 0.249823 0.874912
vt 0.125088 0.750177
vt 0.249823 0.874912
vt 0.125088 0.874912
vt 0.125088 0.750177
vt 0.249823 0.874912
vt 0.125088 0.750177
vt 0.249823 0.874912
vt 0.125088 0.874912
vt 0.125088 0.750177
vt 0.249823 0.874912
vt 0.125088 0.750177
vt 0.249823 0.874912
vt 0.125088 0.874912
vt 0.125088 0.750177
vt 0.249823 0.874912
vt 0.125088 0.750177
vt 0.249823 0.874912
vt 0.125088 0.874912
vt 0.125088 0.750177
vt 0.249823 0.874912
vt 0.125088 0.750177
vt 0.249823 0.874912
vt 0.125088 0.874912
vt 0.125088 0.750177
vt 0.249823 0.874912
vt 0.125088 0.750177
vt 0.249823 0.874912
vt 0.125088 0.874912
vt 0.125088 0.750177
vt 0.249823 0.874912
vt 0.125088 0.750177
vt 0.249823 0.874912
vt 0.125088 0.874912
vt 0.125088 0.750177
vt 0.249823 0.874912
vt 0.125088 0.750177
vt 0.249823 0.874912
vt 0.125088 0.874912
vt 0.125088 0.750177
vt 0.249823 0.874912
vt 0.125088 0.750177
vt 0.249823 0.874912
vt 0.125088 0.874912
vt 0.125088 0.750177
vt 0.249823 0.874912
vt 0.125088 0.750177
vt 0.249823 0.874912
vt 0.125088 0.874912
vt 0.125088 0.750177
vt 0.249823 0.874912
vt 0.125088 0.750177
vt 0.249823 0.874912
vt 0.125088 0.874912
vt 0.125088 0.750177
vt 0.249823 0.874912
vt 0.125088 0.750177
vt 0.249823 0.874912
vt 0.125088 0.874912
vt 0.125088 0.750177
vt 0.249823 0.874912
vt 0.125088 0.750177
vt 0.249823 0.874912
vt 0.125088 0.874912
vt 0.125088 0.750177
vt 0.249823 0.874912
vt 0.125088 0.750177
vt 0.249823 0.874912
vt 0.125088 0.874912
vt 0.125088 0.750177
vt 0.249823 0.874912
vt 0.125088 0.750177
vt 0.249823 0.874912
vt 0.125088 0.874912
vt 0.125088 0.874912
vt 0.125088 0.874912
vt 0.249823 0.874912
vt 0.125088 0.874912
vt 0.125088 0.874912
vt 0.249823 0.874912
vt 0.125088 0.874912
vt 0.125088 0.874912
vt 0.125088 0.750177
vt 0.125088 0.874912
vt 0.125088 0.750177
vt 0.125088 0.874912
vt 0.125088 0.874912
vt 0.125088 0.750177
vt 0.249823 0.874912
vt 0.125088 0.750177
vt 0.249823 0.874912
vt 0.125088 0.750177
vt 0.249823 0.874912
vt 0.125088 0.874912
vt 0.125088 0.874912
vt 0.125088 0.874912
vt 0.125088 0.750177
vt 0.249823 0.874912
vt 0.125088 0.874912
vt 0.125088 0.750177
vt 0.125088 0.874912
vt 0.125088 0.750177
vt 0.125088 0.874912
vt 0.125088 0.750177
vt 0.125088 0.750177
vt 0.125088 0.874912
vt 0.125088 0.750177
vt 0.125088 0.874912
vt 0.125088 0.750177
vt 0.125088 0.874912
vt 0.125088 0.750177
vt 0.125088 0.750177
vt 0.125088 0.874912
vt 0.125088 0.750177
vt 0.125088 0.874912
vt 0.125088 0.750177
vt 0.125088 0.874912
vt 0.125088 0.750177
vt 0.125088 0.750177
vt 0.125088 0.874912
vt 0.125088 0.750177
vt 0.125088 0.874912
vt 0.125088 0.750177
vt 0.125088 0.874912
vt 0.125088 0.750177
vt 0.125088 0.750177
vt 0.125088 0.874912
vt 0.125088 0.750177
vt 0.125088 0.874912
vt 0.125088 0.750177
vt 0.125088 0.874912
vt 0.125088 0.750177
vt 0.125088 0.750177
vt 0.125088 0.750177
vt 0.125088 0.750177
vt 0.125088 0.874912
vt 0.125088 0.750177
vt 0.125088 0.750177
vt 0.125088 0.750177
vt 0.125088 0.750177
vt 0.249823 0.874912
vt 0.125088 0.874912
vt 0.249823 0.874912
vt 0.125088 0.874912
vt 0.249823 0.874912
vt 0.125088 0.874912
vt 0.249823 0.874912
vt 0.125088 0.874912
vt 0.249823 0.874912
vt 0.125088 0.874912
vt 0.249823 0.874912
vt 0.125088 0.750177
vt 0.125088 0.874912
vt 0.249823 0.874912
vt 0.249823 0.874912
vt 0.125088 0.874912
vt 0.249823 0.874912
vt 0.125088 0.874912
vt 0.249823 0.874912
vt 0.125088 0.874912
vt 0.249823 0.874912
vt 0.125088 0.874912
vt 0.249823 0.874912
vt 0.125088 0.874912
vt 0.249823 0.874912
vt 0.249823 0.874912
vt 0.249823 0.874912
vt 0.125088 0.874912
vt 0.249823 0.874912
vt 0.249823 0.874912
vt 0.125088 0.874912
vt 0.249823 0.874912
vt 0.249823 0.874912
vt 0.125088 0.874912
vt 0.249823 0.874912
vt 0.249823 0.874912
vt 0.249823 0.874912
vt 0.249823 0.874912
vt 0.249823 0.874912
vt 0.249823 0.874912
vt 0.125088 0.750177
vt 0.125088 0.874912
vt 0.249823 0.874912
vt 0.125088 0.874912
vt 0.249823 0.874912
vt 0.249823 0.874912
vt 0.249823 0.874912
vt 0.249823 0.874912
vt 0.249823 0.874912
vt 0.249823 0.874912
vt 0.249823 0.874912
vt 0.249823 0.874912
vt 0.125088 0.874912
vt 0.125088 0.750177
vt 0.125088 0.874912
vt 0.125088 0.874912
vt 0.125088 0.874912
vt 0.125088 0.874912
vt 0.125088 0.874912
vt 0.125088 0.874912
vt 0.125088 0.874912
vt 0.125088 0.874912
vt 0.125088 0.874912
vt 0.125088 0.874912
vt 0.125088 0.874912
vt 0.125088 0.874912
vt 0.125088 0.874912
vt 0.249823 0.874912
vt 0.125088 0.874912
vt 0.125088 0.874912
vt 0.125088 0.750177
vt 0.125088 0.874912
vn -1.0000 0.0000 0.0000
vn 1.0000 0.0000 0.0000
vn 0.0000 -1.0000 0.0000
vn 0.0000 1.0000 0.0000
vn 0.0000 0.0000 1.0000
vn 0.0000 0.0000 -1.0000
s off
f 1/1/1 2/2/1 3/3/1
f 1/1/1 4/4/1 2/5/1
f 2/6/1 5/7/1 6/8/1
f 2/6/1 7/9/1 5/10/1
f 8/11/1 9/12/1 10/13/1
f 8/11/1 3/14/1 9/15/1
f 11/16/1 12/17/1 13/18/1
f 11/16/1 14/19/1 12/20/1
f 15/21/1 16/22/1 17/23/1
f 15/21/1 18/24/1 16/25/1
f 19/26/1 20/27/1 21/28/1
f 19/26/1 22/29/1 20/30/1
f 20/31/1 23/32/1 24/33/1
f 20/31/1 25/34/1 23/35/1
f 26/36/1 27/37/1 28/38/1
f 26/36/1 21/39/1 27/40/1
f 29/41/1 30/42/1 31/43/1
f 29/41/1 32/44/1 30/45/1
f 33/46/1 34/47/1 35/48/1
f 33/46/1 36/49/1 34/50/1
f 34/51/1 37/52/1 38/53/1
f 34/51/1 39/54/1 37/55/1
f 40/56/1 41/57/1 42/58/1
f 40/56/1 35/59/1 41/60/1
f 43/61/1 44/62/1 45/63/1
f 43/61/1 46/64/1 44/65/1
f 44/66/1 47/67/1 48/68/1
f 44/66/1 49/69/1 47/70/1
f 50/71/1 51/72/1 52/73/1
f 50/71/1 45/74/1 51/75/1
f 53/76/1 54/77/1 55/78/1
f 53/76/1 56/79/1 54/80/1
f 54/81/1 57/82/1 58/83/1
f 54/81/1 59/84/1 57/85/1
f 60/86/1 61/87/1 62/88/1
f 60/86/1 55/89/1 61/90/1
f 63/91/1 64/92/1 65/93/1
f 63/91/1 66/94/1 64/95/1
f 64/96/1 67/97/1 68/98/1
f 64/96/1 69/99/1 67/100/1
f 70/101/1 71/102/1 72/103/1
f 70/101/1 65/104/1 71/105/1
f 73/106/1 74/107/1 75/108/1
f 73/106/1 76/109/1 74/110/1
f 78/111/2 77/112/2 79/113/2
f 80/114/2 77/112/2 78/115/2
f 81/116/2 78/117/2 82/118/2
f 83/119/2 78/117/2 81/120/2
f 85/121/2 84/122/2 86/123/2
f 79/124/2 84/122/2 85/125/2
f 88/126/2 87/127/2 89/128/2
f 90/129/2 87/127/2 88/130/2
f 92/131/2 91/132/2 93/133/2
f 94/134/2 91/132/2 92/135/2
f 96/136/2 95/137/2 97/138/2
f 98/139/2 95/137/2 96/140/2
f 99/141/2 96/142/2 100/143/2
f 101/144/2 96/142/2 99/145/2
f 103/146/2 102/147/2 104/148/2
f 97/149/2 102/147/2 103/150/2
f 106/151/2 105/152/2 107/153/2
f 108/154/2 105/152/2 106/155/2
f 110/156/2 109/157/2 111/158/2
f 112/159/2 109/157/2 110/160/2
f 113/161/2 110/162/2 114/163/2
f 115/164/2 110/162/2 113/165/2
f 117/166/2 116/167/2 118/168/2
f 111/169/2 116/167/2 117/170/2
f 120/171/2 119/172/2 121/173/2
f 122/174/2 119/172/2 120/175/2
f 123/176/2 120/177/2 124/178/2
f 125/179/2 120/177/2 123/180/2
f 127/181/2 126/182/2 128/183/2
f 121/184/2 126/182/2 127/185/2
f 130/186/2 129/187/2 131/188/2
f 132/189/2 129/187/2 130/190/2
f 133/191/2 130/192/2 134/193/2
f 135/194/2 130/192/2 133/195/2
f 137/196/2 136/197/2 138/198/2
f 131/199/2 136/197/2 137/200/2
f 140/201/2 139/202/2 141/203/2
f 142/204/2 139/202/2 140/205/2
f 143/206/2 140/207/2 144/208/2
f 145/209/2 140/207/2 143/210/2
f 147/211/2 146/212/2 148/213/2
f 141/214/2 146/212/2 147/215/2
f 150/216/2 149/217/2 151/218/2
f 152/219/2 149/217/2 150/220/2
f 89/221/3 107/222/3 92/135/3
f 89/221/3 92/223/3 13/18/3
f 106/151/3 107/222/3 89/128/3
f 12/17/3 89/224/3 13/18/3
f 13/225/3 92/223/3 16/25/3
f 88/126/3 89/224/3 12/20/3
f 13/225/3 16/226/3 30/45/3
f 92/131/3 93/227/3 16/25/3
f 30/42/3 16/226/3 31/43/3
f 16/22/3 93/227/3 17/23/3
f 144/228/3 151/229/3 147/215/3
f 144/228/3 147/230/3 108/231/3
f 150/216/3 151/229/3 144/208/3
f 144/228/3 108/232/3 143/210/3
f 108/154/3 147/230/3 105/233/3
f 108/154/3 90/234/3 143/210/3
f 147/211/3 148/235/3 105/233/3
f 90/129/3 108/232/3 87/236/3
f 105/237/3 148/235/3 91/238/3
f 94/134/3 105/152/3 91/238/3
f 29/239/3 15/21/3 72/103/3
f 71/102/3 29/41/3 72/103/3
f 18/24/3 15/21/3 29/240/3
f 68/241/3 29/41/3 71/105/3
f 68/241/3 71/242/3 74/110/3
f 32/44/3 29/41/3 68/98/3
f 74/107/3 71/242/3 75/108/3
f 67/97/3 32/243/3 68/98/3
f 32/44/3 67/244/3 14/245/3
f 11/246/3 32/243/3 14/245/3
f 149/217/4 140/201/4 141/203/4
f 149/217/4 152/219/4 140/205/4
f 140/207/4 133/191/4 134/193/4
f 140/207/4 145/209/4 133/195/4
f 146/212/4 137/196/4 138/198/4
f 146/212/4 141/214/4 137/200/4
f 58/247/4 69/99/4 64/95/4
f 58/247/4 57/82/4 69/248/4
f 62/249/4 65/104/4 70/250/4
f 62/249/4 61/87/4 65/93/4
f 65/251/4 76/109/4 73/252/4
f 65/251/4 64/92/4 76/253/4
f 139/202/4 130/186/4 131/188/4
f 139/202/4 142/204/4 130/190/4
f 130/192/4 123/176/4 124/178/4
f 130/192/4 135/194/4 123/180/4
f 136/197/4 127/181/4 128/183/4
f 136/197/4 131/199/4 127/185/4
f 48/254/4 59/84/4 54/80/4
f 48/254/4 47/67/4 59/255/4
f 52/256/4 55/89/4 60/257/4
f 52/256/4 51/72/4 55/78/4
f 55/258/4 66/94/4 63/259/4
f 55/258/4 54/77/4 66/260/4
f 129/187/4 120/171/4 121/173/4
f 129/187/4 132/189/4 120/175/4
f 120/177/4 113/161/4 114/163/4
f 120/177/4 125/179/4 113/165/4
f 126/182/4 117/166/4 118/168/4
f 126/182/4 121/184/4 117/170/4
f 38/261/4 49/69/4 44/65/4
f 38/261/4 37/52/4 49/262/4
f 42/263/4 45/74/4 50/264/4
f 42/263/4 41/57/4 45/63/4
f 45/265/4 56/79/4 53/266/4
f 45/265/4 44/62/4 56/267/4
f 119/172/4 110/156/4 111/158/4
f 119/172/4 122/174/4 110/160/4
f 110/162/4 99/141/4 100/143/4
f 110/162/4 115/164/4 99/145/4
f 116/167/4 103/146/4 104/148/4
f 116/167/4 111/169/4 103/150/4
f 24/268/4 39/54/4 34/50/4
f 24/268/4 23/32/4 39/269/4
f 28/270/4 35/59/4 40/271/4
f 28/270/4 27/37/4 35/48/4
f 35/272/4 46/64/4 43/273/4
f 35/272/4 34/47/4 46/274/4
f 109/157/4 96/136/4 97/138/4
f 109/157/4 112/159/4 96/140/4
f 96/142/4 81/116/4 82/118/4
f 96/142/4 101/144/4 81/120/4
f 102/147/4 85/121/4 86/123/4
f 102/147/4 97/149/4 85/125/4
f 6/275/4 25/34/4 20/30/4
f 6/275/4 5/7/4 25/276/4
f 10/277/4 21/39/4 26/278/4
f 10/277/4 9/12/4 21/28/4
f 21/279/4 36/49/4 33/280/4
f 21/279/4 20/27/4 36/281/4
f 95/137/4 78/111/4 79/113/4
f 95/137/4 98/139/4 78/115/4
f 78/117/4 7/9/4 2/5/4
f 78/117/4 83/119/4 7/282/4
f 84/122/4 3/14/4 8/283/4
f 84/122/4 79/124/4 3/3/4
f 3/284/4 22/29/4 19/285/4
f 3/284/4 2/2/4 22/286/4
f 77/112/4 4/4/4 1/287/4
f 77/112/4 80/114/4 4/288/4
f 151/229/5 141/214/5 147/215/5
f 151/229/5 149/289/5 141/203/5
f 141/290/5 131/199/5 137/200/5
f 141/290/5 139/291/5 131/188/5
f 131/292/5 121/184/5 127/185/5
f 131/292/5 129/293/5 121/173/5
f 121/294/5 111/169/5 117/170/5
f 121/294/5 119/295/5 111/158/5
f 111/296/5 97/149/5 103/150/5
f 111/296/5 109/297/5 97/138/5
f 97/298/5 79/124/5 85/125/5
f 97/298/5 95/299/5 79/113/5
f 107/222/5 94/134/5 92/135/5
f 107/222/5 105/237/5 94/300/5
f 79/301/5 1/302/5 3/3/5
f 79/301/5 77/303/5 1/287/5
f 9/304/5 19/305/5 21/28/5
f 9/304/5 3/14/5 19/285/5
f 16/226/5 29/239/5 31/43/5
f 16/226/5 18/24/5 29/240/5
f 27/306/5 33/307/5 35/48/5
f 27/306/5 21/39/5 33/280/5
f 41/308/5 43/309/5 45/63/5
f 41/308/5 35/59/5 43/273/5
f 51/310/5 53/311/5 55/78/5
f 51/310/5 45/74/5 53/266/5
f 61/312/5 63/313/5 65/93/5
f 61/312/5 55/89/5 63/259/5
f 71/242/5 73/314/5 75/108/5
f 71/242/5 65/104/5 73/252/5
f 148/235/5 138/315/5 91/238/5
f 138/316/5 128/317/5 91/238/5
f 148/235/5 146/318/5 138/198/5
f 128/319/5 118/320/5 91/238/5
f 138/316/5 136/321/5 128/183/5
f 118/322/5 104/323/5 91/238/5
f 128/319/5 126/324/5 118/168/5
f 28/270/5 91/325/5 104/148/5
f 118/322/5 116/326/5 104/148/5
f 28/270/5 104/323/5 10/13/5
f 15/21/5 91/325/5 28/38/5
f 10/277/5 104/323/5 86/123/5
f 10/277/5 26/327/5 28/38/5
f 42/263/5 15/328/5 28/38/5
f 93/227/5 91/325/5 15/329/5
f 104/330/5 102/331/5 86/123/5
f 86/332/5 8/333/5 10/13/5
f 28/270/5 40/334/5 42/58/5
f 52/256/5 15/328/5 42/58/5
f 93/227/5 15/328/5 17/23/5
f 86/332/5 84/335/5 8/283/5
f 42/263/5 50/336/5 52/73/5
f 15/21/5 52/337/5 62/88/5
f 52/256/5 60/338/5 62/88/5
f 15/21/5 62/339/5 72/103/5
f 62/249/5 70/340/5 72/103/5
f 133/191/6 143/341/6 90/342/6
f 123/176/6 133/343/6 90/342/6
f 145/209/6 143/341/6 133/195/6
f 113/161/6 123/344/6 90/342/6
f 135/194/6 133/343/6 123/180/6
f 99/141/6 113/345/6 90/342/6
f 125/179/6 123/344/6 113/165/6
f 90/129/6 23/346/6 99/145/6
f 115/164/6 113/345/6 99/145/6
f 99/141/6 23/346/6 5/10/6
f 90/129/6 14/347/6 23/35/6
f 99/141/6 5/348/6 81/120/6
f 25/34/6 5/348/6 23/35/6
f 14/19/6 37/349/6 23/35/6
f 90/129/6 88/350/6 14/245/6
f 101/144/6 99/351/6 81/120/6
f 7/9/6 81/352/6 5/10/6
f 39/54/6 23/346/6 37/55/6
f 14/19/6 47/353/6 37/55/6
f 14/19/6 88/350/6 12/20/6
f 83/119/6 81/352/6 7/282/6
f 49/69/6 37/349/6 47/70/6
f 47/67/6 14/347/6 57/85/6
f 59/84/6 47/353/6 57/85/6
f 57/82/6 14/347/6 67/100/6
f 69/99/6 57/354/6 67/100/6
f 140/201/6 150/355/6 144/208/6
f 152/219/6 150/355/6 140/205/6
f 130/186/6 140/207/6 134/193/6
f 142/204/6 140/207/6 130/190/6
f 120/171/6 130/192/6 124/178/6
f 132/189/6 130/192/6 120/175/6
f 110/156/6 120/177/6 114/163/6
f 122/174/6 120/177/6 110/160/6
f 96/136/6 110/162/6 100/143/6
f 112/159/6 110/162/6 96/140/6
f 78/111/6 96/142/6 82/118/6
f 98/139/6 96/142/6 78/115/6
f 87/356/6 106/357/6 89/128/6
f 108/154/6 106/357/6 87/236/6
f 4/4/6 78/117/6 2/5/6
f 80/114/6 78/117/6 4/288/6
f 22/29/6 6/275/6 20/30/6
f 2/2/6 6/275/6 22/286/6
f 32/44/6 13/358/6 30/45/6
f 11/246/6 13/358/6 32/359/6
f 36/49/6 24/268/6 34/50/6
f 20/27/6 24/268/6 36/281/6
f 46/64/6 38/261/6 44/65/6
f 34/47/6 38/261/6 46/274/6
f 56/79/6 48/254/6 54/80/6
f 44/62/6 48/254/6 56/267/6
f 66/94/6 58/247/6 64/95/6
f 54/77/6 58/247/6 66/260/6
f 76/109/6 68/360/6 74/110/6
f 64/92/6 68/360/6 76/253/6
