# Blender v2.92.0 OBJ File: 'InteractUV.blend'
# www.blender.org
o WollSmoll.Merged_Plane-tex.006
v -0.650000 1.650000 0.450000
v -0.650000 -0.050000 0.350000
v -0.650000 -0.050000 0.450000
v -0.650000 1.650000 0.350000
v -0.650000 1.650000 -0.350000
v -0.650000 -0.050000 -0.450000
v -0.650000 -0.050000 -0.350000
v -0.650000 1.650000 -0.450000
v -0.750000 1.650000 0.350000
v -0.750000 -0.050000 -0.350000
v -0.750000 -0.050000 0.350000
v -0.750000 1.650000 -0.350000
v 0.950000 1.650000 0.450000
v 0.950000 -0.050000 -0.450000
v 0.950000 -0.050000 0.450000
v 0.950000 1.650000 -0.450000
vt 0.886269 0.706131
vt 0.966833 0.710866
vt 0.966833 0.706131
vt 0.886264 0.710868
vt 0.900488 0.587635
vt 0.981052 0.592370
vt 0.981052 0.587635
vt 0.900484 0.592372
vt 0.981048 0.592372
vt 0.891007 0.995257
vt 0.971574 0.962087
vt 0.971574 0.995257
vt 0.876784 0.587640
vt 0.876784 0.620809
vt 0.957350 0.620809
vt 0.886265 0.786033
vt 0.966828 0.792123
vt 0.886265 0.792123
vt 1.000013 0.952598
vt 0.957364 0.952598
vt 1.000013 0.872031
vt 0.862557 0.867289
vt 0.857823 0.943113
vt 0.857823 0.867289
vt 0.947875 0.653997
vt 0.947875 0.696647
vt 0.872047 0.691908
vt 0.962100 0.620816
vt 0.957362 0.696642
vt 0.995270 0.620816
vt 0.867298 0.803301
vt 0.867298 0.819878
vt 0.862565 0.803301
vt 0.867299 0.805671
vt 0.867299 0.881495
vt 0.862564 0.805671
vt 0.862563 0.819882
vt 0.881522 0.786698
vt 0.881522 0.710874
vt 0.867304 0.630296
vt 0.867304 0.672945
vt 0.943131 0.635034
vt 0.947870 0.947866
vt 0.872044 0.952604
vt 0.872044 0.985774
vt 0.867297 0.800930
vt 0.862567 0.800930
vt 0.867297 0.805660
vt 0.857819 0.805658
vt 0.857819 0.729833
vt 0.853084 0.729833
vt 0.862567 0.800930
vt 0.867297 0.805660
vt 0.900476 0.777223
vt 0.895741 0.696659
vt 0.895741 0.777223
vt 0.900478 0.696654
vt 0.919446 0.862541
vt 0.995273 0.781974
vt 0.995273 0.862541
vt 0.995273 0.696657
vt 0.995273 0.777224
vt 0.919446 0.777224
vt 0.872039 0.796178
vt 0.867304 0.715614
vt 0.872039 0.715614
vt 0.867302 0.796182
vt 0.947871 0.805670
vt 0.947875 0.867291
vt 0.872047 0.947858
vn -1.0000 0.0000 0.0000
vn 1.0000 0.0000 0.0000
vn 0.0000 -1.0000 0.0000
vn 0.0000 1.0000 0.0000
vn 0.0000 0.0000 1.0000
vn 0.0000 0.0000 -1.0000
s off
f 1/1/1 2/2/1 3/3/1
f 1/1/1 4/4/1 2/2/1
f 5/5/1 6/6/1 7/7/1
f 5/5/1 8/8/1 6/9/1
f 9/10/1 10/11/1 11/12/1
f 9/13/1 12/14/1 10/15/1
f 14/16/2 13/17/2 15/18/2
f 16/19/2 13/20/2 14/21/2
f 2/22/3 15/23/3 3/24/3
f 14/25/3 15/26/3 2/27/3
f 7/28/3 14/29/3 2/30/3
f 7/31/3 2/32/3 10/33/3
f 6/34/3 14/35/3 7/36/3
f 10/33/3 2/32/3 11/37/3
f 13/38/4 4/4/4 1/39/4
f 13/40/4 16/41/4 4/42/4
f 16/43/4 5/44/4 4/45/4
f 4/46/4 5/47/4 12/48/4
f 16/49/4 8/50/4 5/51/4
f 4/46/4 12/52/4 9/53/4
f 2/54/5 9/55/5 11/56/5
f 2/54/5 4/57/5 9/55/5
f 15/58/5 1/59/5 3/60/5
f 15/61/5 13/62/5 1/63/5
f 12/64/6 7/65/6 10/66/6
f 5/67/6 7/65/6 12/64/6
f 8/68/6 14/35/6 6/34/6
f 16/43/6 14/69/6 8/70/6
