# Blender v2.92.0 OBJ File: 'uiUV.blend'
# www.blender.org
o DeskWithRope.Merged_Plane-tex.004
v -2.450000 4.550000 0.150000
v -2.450000 -0.050000 -0.150000
v -2.450000 -0.050000 0.150000
v -2.450000 4.550000 -0.150000
v 2.550000 4.450000 0.150000
v 2.550000 0.050000 0.050000
v 2.550000 0.050000 0.150000
v 2.550000 4.450000 0.050000
v 2.550000 4.450000 -0.050000
v 2.550000 0.050000 -0.150000
v 2.550000 0.050000 -0.050000
v 2.550000 4.450000 -0.150000
v 1.450000 6.750000 0.050000
v 1.450000 4.550000 -0.050000
v 1.450000 4.550000 0.050000
v 1.450000 6.750000 -0.050000
v -1.450000 6.750000 0.050000
v -1.450000 4.550000 -0.050000
v -1.450000 4.550000 0.050000
v -1.450000 6.750000 -0.050000
v -2.350000 4.450000 0.150000
v -2.350000 0.050000 0.050000
v -2.350000 0.050000 0.150000
v -2.350000 4.450000 0.050000
v -2.350000 4.450000 -0.050000
v -2.350000 0.050000 -0.150000
v -2.350000 0.050000 -0.050000
v -2.350000 4.450000 -0.150000
v 2.650000 4.550000 0.150000
v 2.650000 -0.050000 -0.150000
v 2.650000 -0.050000 0.150000
v 2.650000 4.550000 -0.150000
v -1.250000 6.750000 0.050000
v -1.250000 4.550000 -0.050000
v -1.250000 4.550000 0.050000
v -1.250000 6.750000 -0.050000
v 1.650000 6.750000 0.050000
v 1.650000 4.550000 -0.050000
v 1.650000 4.550000 0.050000
v 1.650000 6.750000 -0.050000
vt 0.573980 0.748250
vt 0.584028 0.748250
vt 0.573980 0.738202
vt 0.584028 0.748250
vt 0.573980 0.738202
vt 0.573980 0.748250
vt 0.584028 0.748250
vt 0.573980 0.738202
vt 0.584028 0.748250
vt 0.573980 0.738202
vt 0.573980 0.748250
vt 0.584028 0.748250
vt 0.573980 0.738202
vt 0.584028 0.748250
vt 0.573980 0.738202
vt 0.573976 0.989911
vt 0.584036 0.768406
vt 0.573976 0.768406
vt 0.584039 0.989921
vt 0.573976 0.989911
vt 0.584036 0.768406
vt 0.573976 0.768406
vt 0.584039 0.989921
vt 0.584028 0.748250
vt 0.573980 0.748250
vt 0.573980 0.738202
vt 0.584028 0.748250
vt 0.573980 0.738202
vt 0.584028 0.748250
vt 0.573980 0.748250
vt 0.573980 0.738202
vt 0.584028 0.748250
vt 0.573980 0.738202
vt 0.584028 0.748250
vt 0.573980 0.748250
vt 0.573980 0.738202
vt 0.584028 0.748250
vt 0.573980 0.738202
vt 0.584036 0.768406
vt 0.573976 0.989911
vt 0.573976 0.768406
vt 0.584039 0.989921
vt 0.584036 0.768406
vt 0.573976 0.989911
vt 0.573976 0.768406
vt 0.584039 0.989921
vt 0.573980 0.748250
vt 0.573980 0.738202
vt 0.573980 0.738202
vt 0.573980 0.738202
vt 0.573980 0.738202
vt 0.573980 0.748250
vt 0.573980 0.748250
vt 0.584035 0.989923
vt 0.584035 0.979875
vt 0.584035 0.979875
vt 0.573987 0.989923
vt 0.584035 0.989923
vt 0.584035 0.979875
vt 0.584035 0.979875
vt 0.573987 0.989923
vt 0.584028 0.748250
vt 0.573980 0.738202
vt 0.584028 0.748250
vt 0.573980 0.748250
vt 0.584028 0.748250
vt 0.573980 0.738202
vt 0.573980 0.738202
vt 0.573980 0.748250
vt 0.584028 0.748250
vt 0.584028 0.748250
vt 0.573980 0.738202
vt 0.573980 0.748250
vt 0.584028 0.748250
vt 0.573980 0.748250
vt 0.584028 0.748250
vt 0.573980 0.738202
vt 0.573980 0.748250
vt 0.573980 0.738202
vt 0.584028 0.748250
vt 0.573980 0.738202
vt 0.573980 0.748250
vt 0.573980 0.748250
vt 0.573980 0.748250
vt 0.060432 0.536801
vt 0.553826 0.979846
vt 0.553826 0.536801
vt 0.010077 0.546878
vt 0.010077 0.989923
vt 0.503471 0.989923
vt 0.584036 0.768406
vt 0.584036 0.768406
vt 0.584028 0.748250
vt 0.584028 0.748250
vt 0.573980 0.748250
vt 0.584028 0.748250
vt 0.584028 0.748250
vt 0.584028 0.748250
vt 0.553826 0.979846
vt 0.060432 0.536801
vt 0.553826 0.536801
vt 0.010077 0.989923
vt 0.010077 0.546878
vt 0.503471 0.989923
vt 0.573976 0.768406
vt 0.573976 0.768406
vt 0.573980 0.748250
vt 0.573980 0.748250
vt 0.573980 0.748250
vt 0.573980 0.748250
vt 0.573980 0.748250
vn -1.0000 0.0000 0.0000
vn 1.0000 0.0000 0.0000
vn 0.0000 -1.0000 0.0000
vn 0.0000 1.0000 0.0000
vn 0.0000 0.0000 1.0000
vn 0.0000 0.0000 -1.0000
s off
f 1/1/1 2/2/1 3/3/1
f 1/1/1 4/4/1 2/5/1
f 5/6/1 6/7/1 7/8/1
f 5/6/1 8/9/1 6/10/1
f 9/11/1 10/12/1 11/13/1
f 9/11/1 12/14/1 10/15/1
f 13/16/1 14/17/1 15/18/1
f 13/16/1 16/19/1 14/17/1
f 17/20/1 18/21/1 19/22/1
f 17/20/1 20/23/1 18/21/1
f 22/24/2 21/25/2 23/26/2
f 24/27/2 21/25/2 22/28/2
f 26/29/2 25/30/2 27/31/2
f 28/32/2 25/30/2 26/33/2
f 30/34/2 29/35/2 31/36/2
f 32/37/2 29/35/2 30/38/2
f 34/39/2 33/40/2 35/41/2
f 36/42/2 33/40/2 34/39/2
f 38/43/2 37/44/2 39/45/2
f 40/46/2 37/44/2 38/43/2
f 2/2/3 31/47/3 3/3/3
f 30/34/3 31/47/3 2/5/3
f 24/27/3 5/6/3 21/48/3
f 8/9/3 5/6/3 24/49/3
f 28/32/3 9/11/3 25/50/3
f 12/14/3 9/11/3 28/51/3
f 7/52/4 22/24/4 23/26/4
f 7/52/4 6/7/4 22/28/4
f 11/53/4 26/29/4 27/31/4
f 11/53/4 10/12/4 26/33/4
f 37/54/4 16/55/4 13/16/4
f 37/54/4 40/56/4 16/57/4
f 33/58/4 20/59/4 17/20/4
f 33/58/4 36/60/4 20/61/4
f 1/1/4 29/62/4 15/63/4
f 29/35/4 39/64/4 15/63/4
f 15/65/4 35/66/4 1/67/4
f 29/35/4 32/37/4 39/68/4
f 35/69/4 19/70/4 1/67/4
f 15/65/4 34/71/4 35/72/4
f 32/73/4 38/74/4 39/68/4
f 19/75/4 4/4/4 1/67/4
f 15/65/4 14/76/4 34/77/4
f 14/78/4 38/74/4 32/79/4
f 19/75/4 18/80/4 4/81/4
f 34/82/4 14/76/4 4/81/4
f 4/83/4 14/76/4 32/79/4
f 18/84/4 34/71/4 4/81/4
f 6/85/5 24/86/5 22/87/5
f 6/88/5 8/89/5 24/90/5
f 39/91/5 13/16/5 15/18/5
f 39/91/5 37/54/5 13/16/5
f 35/92/5 17/20/5 19/22/5
f 35/92/5 33/58/5 17/20/5
f 31/47/5 7/93/5 3/3/5
f 7/52/5 23/94/5 3/3/5
f 31/47/5 29/62/5 7/8/5
f 23/95/5 1/96/5 3/3/5
f 29/35/5 5/97/5 7/8/5
f 23/95/5 21/98/5 1/67/5
f 5/6/5 29/62/5 1/67/5
f 21/25/5 5/97/5 1/67/5
f 25/99/6 11/100/6 27/101/6
f 9/102/6 11/103/6 25/104/6
f 16/57/6 38/43/6 14/105/6
f 40/46/6 38/43/6 16/57/6
f 20/61/6 34/39/6 18/106/6
f 36/42/6 34/39/6 20/61/6
f 10/12/6 30/107/6 2/5/6
f 26/29/6 10/108/6 2/5/6
f 32/37/6 30/107/6 10/15/6
f 4/4/6 26/109/6 2/5/6
f 12/14/6 32/73/6 10/15/6
f 28/32/6 26/109/6 4/81/6
f 32/37/6 12/110/6 4/81/6
f 12/14/6 28/111/6 4/81/6
