# Blender v2.92.0 OBJ File: 'InteractUV.blend'
# www.blender.org
o CanonDulo.Merged_Plane-tex.011
v -0.050000 1.350000 0.250000
v -0.050000 1.250000 0.150000
v -0.050000 1.250000 0.250000
v -0.050000 1.350000 0.150000
v -0.050000 1.350000 -0.150000
v -0.050000 1.250000 -0.250000
v -0.050000 1.250000 -0.150000
v -0.050000 1.350000 -0.250000
v -0.050000 0.950000 -0.350000
v -0.050000 0.950000 -0.250000
v -0.050000 1.250000 -0.350000
v -0.050000 1.250000 0.350000
v -0.050000 0.950000 0.250000
v -0.050000 0.950000 0.350000
v -0.050000 0.950000 -0.150000
v -0.050000 0.250000 -0.250000
v -0.050000 0.250000 -0.150000
v -0.050000 0.250000 0.150000
v -0.050000 0.250000 0.250000
v -0.050000 0.950000 0.150000
v -0.150000 1.350000 0.150000
v -0.150000 1.250000 -0.150000
v -0.150000 1.250000 0.150000
v -0.150000 1.350000 -0.150000
v -0.150000 0.950000 -0.250000
v -0.150000 0.950000 -0.150000
v -0.150000 1.250000 -0.250000
v -0.150000 1.250000 0.250000
v -0.150000 0.950000 0.150000
v -0.150000 0.950000 0.250000
v -0.150000 0.250000 -0.150000
v -0.150000 0.250000 0.150000
v 0.250000 1.350000 0.150000
v 0.250000 1.250000 -0.150000
v 0.250000 1.250000 0.150000
v 0.250000 1.350000 -0.150000
v -0.250000 1.250000 0.150000
v -0.250000 0.950000 -0.150000
v -0.250000 0.950000 0.150000
v -0.250000 1.250000 -0.150000
v 0.250000 1.350000 0.250000
v 0.250000 1.250000 0.250000
v 0.250000 1.250000 -0.250000
v 0.250000 1.350000 -0.250000
v 0.250000 0.950000 -0.350000
v 0.250000 0.950000 -0.250000
v 0.250000 1.250000 -0.350000
v 0.250000 1.250000 0.350000
v 0.250000 0.950000 0.250000
v 0.250000 0.950000 0.350000
v 0.250000 0.950000 -0.150000
v 0.250000 0.250000 -0.250000
v 0.250000 0.250000 -0.150000
v 0.250000 0.250000 0.150000
v 0.250000 0.250000 0.250000
v 0.250000 0.950000 0.150000
v 0.350000 1.350000 0.150000
v 0.350000 1.250000 -0.150000
v 0.350000 1.250000 0.150000
v 0.350000 1.350000 -0.150000
v 0.350000 0.950000 -0.250000
v 0.350000 0.950000 -0.150000
v 0.350000 1.250000 -0.250000
v 0.350000 1.250000 0.250000
v 0.350000 0.950000 0.150000
v 0.350000 0.950000 0.250000
v 0.350000 0.250000 -0.150000
v 0.350000 0.250000 0.150000
v 0.450000 1.250000 0.150000
v 0.450000 0.950000 -0.150000
v 0.450000 0.950000 0.150000
v 0.450000 1.250000 -0.150000
vt 0.477230 0.592029
vt 0.482348 0.592029
vt 0.477230 0.586911
vt 0.482348 0.592029
vt 0.477230 0.586911
vt 0.477230 0.592029
vt 0.482348 0.592029
vt 0.477230 0.586911
vt 0.482348 0.592029
vt 0.477230 0.586911
vt 0.477230 0.592029
vt 0.482348 0.592029
vt 0.477230 0.586911
vt 0.482348 0.592029
vt 0.477230 0.586911
vt 0.477230 0.592029
vt 0.482348 0.592029
vt 0.477230 0.586911
vt 0.482348 0.592029
vt 0.477230 0.586911
vt 0.492617 0.592029
vt 0.497735 0.592029
vt 0.492617 0.586911
vt 0.497735 0.592029
vt 0.492617 0.586911
vt 0.492617 0.592029
vt 0.497735 0.592029
vt 0.492617 0.586911
vt 0.497735 0.592029
vt 0.492617 0.586911
vt 0.477230 0.592029
vt 0.482348 0.592029
vt 0.477230 0.586911
vt 0.482348 0.592029
vt 0.477230 0.586911
vt 0.477230 0.592029
vt 0.482348 0.592029
vt 0.477230 0.586911
vt 0.482348 0.592029
vt 0.477230 0.586911
vt 0.477230 0.592029
vt 0.482348 0.592029
vt 0.477230 0.586911
vt 0.482348 0.592029
vt 0.477230 0.586911
vt 0.492617 0.592029
vt 0.497735 0.592029
vt 0.492617 0.586911
vt 0.497735 0.592029
vt 0.492617 0.586911
vt 0.477230 0.592029
vt 0.482348 0.592029
vt 0.477230 0.586911
vt 0.482348 0.592029
vt 0.477230 0.586911
vt 0.477230 0.592029
vt 0.482348 0.592029
vt 0.477230 0.586911
vt 0.482348 0.592029
vt 0.477230 0.586911
vt 0.482348 0.592029
vt 0.477230 0.592029
vt 0.477230 0.586911
vt 0.482348 0.592029
vt 0.482348 0.592029
vt 0.477230 0.592029
vt 0.482348 0.592029
vt 0.477230 0.586911
vt 0.482348 0.592029
vt 0.477230 0.592029
vt 0.477230 0.586911
vt 0.482348 0.592029
vt 0.477230 0.586911
vt 0.482348 0.592029
vt 0.477230 0.592029
vt 0.477230 0.586911
vt 0.482348 0.592029
vt 0.477230 0.586911
vt 0.497735 0.592029
vt 0.492617 0.592029
vt 0.492617 0.586911
vt 0.497735 0.592029
vt 0.492617 0.586911
vt 0.497735 0.592029
vt 0.492617 0.592029
vt 0.492617 0.586911
vt 0.497735 0.592029
vt 0.492617 0.586911
vt 0.482348 0.592029
vt 0.477230 0.592029
vt 0.482348 0.592029
vt 0.482348 0.592029
vt 0.477230 0.592029
vt 0.477230 0.586911
vt 0.482348 0.592029
vt 0.477230 0.586911
vt 0.482348 0.592029
vt 0.477230 0.592029
vt 0.477230 0.586911
vt 0.482348 0.592029
vt 0.477230 0.586911
vt 0.482348 0.592029
vt 0.477230 0.592029
vt 0.477230 0.586911
vt 0.482348 0.592029
vt 0.477230 0.586911
vt 0.497735 0.592029
vt 0.492617 0.592029
vt 0.492617 0.586911
vt 0.497735 0.592029
vt 0.492617 0.586911
vt 0.482348 0.592029
vt 0.477230 0.592029
vt 0.477230 0.586911
vt 0.482348 0.592029
vt 0.477230 0.586911
vt 0.497735 0.592029
vt 0.492617 0.592029
vt 0.492617 0.592029
vt 0.492617 0.592029
vt 0.497735 0.592029
vt 0.492617 0.592029
vt 0.492617 0.592029
vt 0.482348 0.592029
vt 0.477230 0.592029
vt 0.482348 0.592029
vt 0.477230 0.592029
vt 0.477230 0.586911
vt 0.482348 0.592029
vt 0.477230 0.592029
vt 0.477230 0.586911
vt 0.477230 0.592029
vt 0.477230 0.592029
vt 0.477230 0.592029
vt 0.482348 0.592029
vt 0.477230 0.592029
vt 0.482348 0.592029
vt 0.477230 0.592029
vt 0.482348 0.592029
vt 0.477230 0.586911
vt 0.508003 0.592029
vt 0.513121 0.592029
vt 0.508003 0.586911
vt 0.513121 0.592029
vt 0.508003 0.586911
vt 0.477230 0.586911
vt 0.477230 0.592029
vt 0.477230 0.586911
vt 0.477230 0.592029
vt 0.477230 0.586911
vt 0.477230 0.592029
vt 0.477230 0.586911
vt 0.477230 0.586911
vt 0.477230 0.586911
vt 0.477230 0.586911
vt 0.477230 0.586911
vt 0.477230 0.586911
vt 0.477230 0.586911
vt 0.477230 0.586911
vt 0.477230 0.586911
vt 0.477230 0.586911
vt 0.482348 0.592029
vt 0.477230 0.592029
vt 0.482348 0.592029
vt 0.497735 0.592029
vt 0.492617 0.586911
vt 0.477230 0.592029
vt 0.482348 0.592029
vt 0.497735 0.592029
vt 0.492617 0.586911
vt 0.482348 0.592029
vt 0.477230 0.592029
vt 0.482348 0.592029
vt 0.477230 0.592029
vt 0.482348 0.592029
vt 0.482348 0.592029
vt 0.497735 0.592029
vt 0.497735 0.592029
vt 0.492617 0.586911
vt 0.482348 0.592029
vt 0.482348 0.592029
vt 0.482348 0.592029
vt 0.477230 0.592029
vt 0.497735 0.592029
vt 0.492617 0.592029
vt 0.492617 0.586911
vt 0.492617 0.592029
vt 0.497735 0.592029
vt 0.492617 0.586911
vt 0.477230 0.592029
vt 0.477230 0.592029
vt 0.492617 0.592029
vt 0.492617 0.586911
vt 0.477230 0.592029
vt 0.477230 0.592029
vt 0.477230 0.592029
vn -1.0000 0.0000 0.0000
vn 1.0000 0.0000 0.0000
vn 0.0000 -1.0000 0.0000
vn 0.0000 1.0000 0.0000
vn 0.0000 0.0000 1.0000
vn 0.0000 0.0000 -1.0000
s off
f 1/1/1 2/2/1 3/3/1
f 1/1/1 4/4/1 2/5/1
f 5/6/1 6/7/1 7/8/1
f 5/6/1 8/9/1 6/10/1
f 6/11/1 9/12/1 10/13/1
f 6/11/1 11/14/1 9/15/1
f 12/16/1 13/17/1 14/18/1
f 12/16/1 3/19/1 13/20/1
f 15/21/1 16/22/1 17/23/1
f 15/21/1 10/24/1 16/25/1
f 13/26/1 18/27/1 19/28/1
f 13/26/1 20/29/1 18/30/1
f 21/31/1 22/32/1 23/33/1
f 21/31/1 24/34/1 22/35/1
f 22/36/1 25/37/1 26/38/1
f 22/36/1 27/39/1 25/40/1
f 28/41/1 29/42/1 30/43/1
f 28/41/1 23/44/1 29/45/1
f 29/46/1 31/47/1 32/48/1
f 29/46/1 26/49/1 31/50/1
f 33/51/1 34/52/1 35/53/1
f 33/51/1 36/54/1 34/55/1
f 37/56/1 38/57/1 39/58/1
f 37/56/1 40/59/1 38/60/1
f 35/61/2 41/62/2 42/63/2
f 33/64/2 41/62/2 35/53/2
f 43/65/2 36/66/2 34/55/2
f 44/67/2 36/66/2 43/68/2
f 45/69/2 43/70/2 46/71/2
f 47/72/2 43/70/2 45/73/2
f 49/74/2 48/75/2 50/76/2
f 42/77/2 48/75/2 49/78/2
f 52/79/2 51/80/2 53/81/2
f 46/82/2 51/80/2 52/83/2
f 54/84/2 49/85/2 55/86/2
f 56/87/2 49/85/2 54/88/2
f 7/89/2 4/90/2 2/5/2
f 5/91/2 4/90/2 7/8/2
f 58/92/2 57/93/2 59/94/2
f 60/95/2 57/93/2 58/96/2
f 61/97/2 58/98/2 62/99/2
f 63/100/2 58/98/2 61/101/2
f 65/102/2 64/103/2 66/104/2
f 59/105/2 64/103/2 65/106/2
f 67/107/2 65/108/2 68/109/2
f 62/110/2 65/108/2 67/111/2
f 70/112/2 69/113/2 71/114/2
f 72/115/2 69/113/2 70/116/2
f 53/117/3 68/118/3 54/88/3
f 53/117/3 54/119/3 17/23/3
f 67/107/3 68/118/3 53/81/3
f 16/22/3 53/120/3 17/23/3
f 17/121/3 54/119/3 18/30/3
f 52/79/3 53/120/3 16/25/3
f 17/121/3 18/122/3 31/50/3
f 54/84/3 55/123/3 18/30/3
f 31/47/3 18/122/3 32/48/3
f 18/27/3 55/123/3 19/28/3
f 62/124/3 71/125/3 65/106/3
f 70/112/3 71/125/3 62/99/3
f 46/126/3 62/127/3 51/128/3
f 61/97/3 62/127/3 46/71/3
f 56/129/3 66/130/3 49/78/3
f 65/102/3 66/130/3 56/131/3
f 9/12/3 46/132/3 10/13/3
f 45/69/3 46/132/3 9/15/3
f 13/17/3 50/133/3 14/18/3
f 49/74/3 50/133/3 13/20/3
f 25/37/3 15/134/3 26/38/3
f 10/135/3 15/134/3 25/40/3
f 29/42/3 13/136/3 30/43/3
f 20/137/3 13/136/3 29/45/3
f 38/57/3 29/138/3 39/58/3
f 26/139/3 29/138/3 38/60/3
f 69/113/4 58/92/4 59/94/4
f 69/113/4 72/115/4 58/96/4
f 58/98/4 43/65/4 34/55/4
f 58/98/4 63/100/4 43/68/4
f 64/103/4 35/61/4 42/63/4
f 64/103/4 59/105/4 35/53/4
f 43/70/4 11/14/4 6/10/4
f 43/70/4 47/72/4 11/140/4
f 35/141/4 7/142/4 2/143/4
f 35/141/4 34/144/4 7/145/4
f 48/75/4 3/19/4 12/146/4
f 48/75/4 42/77/4 3/3/4
f 7/147/4 27/39/4 22/35/4
f 7/147/4 6/7/4 27/148/4
f 3/149/4 23/44/4 28/150/4
f 3/149/4 2/2/4 23/33/4
f 23/151/4 40/59/4 37/152/4
f 23/151/4 22/32/4 40/153/4
f 57/93/4 36/54/4 33/154/4
f 57/93/4 60/95/4 36/155/4
f 36/66/4 8/9/4 5/156/4
f 36/66/4 44/67/4 8/157/4
f 41/62/4 4/4/4 1/158/4
f 41/62/4 33/64/4 4/159/4
f 4/90/4 24/34/4 21/160/4
f 4/90/4 5/91/4 24/161/4
f 71/125/5 59/105/5 65/106/5
f 71/125/5 69/162/5 59/94/5
f 59/163/5 33/64/5 35/53/5
f 59/163/5 57/164/5 33/154/5
f 68/118/5 56/87/5 54/88/5
f 68/118/5 65/165/5 56/166/5
f 2/167/5 21/168/5 23/33/5
f 2/167/5 4/4/5 21/160/5
f 18/122/5 29/169/5 32/48/5
f 18/122/5 20/29/5 29/170/5
f 29/138/5 37/171/5 39/58/5
f 29/138/5 23/44/5 37/152/5
f 34/172/5 5/91/5 7/8/5
f 34/172/5 36/54/5 5/156/5
f 66/130/5 42/77/5 49/78/5
f 66/130/5 64/173/5 42/63/5
f 42/174/5 1/175/5 3/3/5
f 42/174/5 41/176/5 1/158/5
f 55/123/5 13/177/5 19/28/5
f 55/123/5 49/178/5 13/179/5
f 13/136/5 28/180/5 30/43/5
f 13/136/5 3/19/5 28/150/5
f 50/133/5 12/181/5 14/18/5
f 50/133/5 48/182/5 12/146/5
f 58/92/6 70/183/6 62/99/6
f 72/115/6 70/183/6 58/96/6
f 36/54/6 58/98/6 34/55/6
f 60/95/6 58/98/6 36/155/6
f 51/184/6 67/185/6 53/81/6
f 62/110/6 67/185/6 51/186/6
f 24/34/6 7/147/6 22/35/6
f 5/91/6 7/147/6 24/161/6
f 26/49/6 17/187/6 31/50/6
f 15/188/6 17/187/6 26/189/6
f 40/59/6 26/190/6 38/60/6
f 22/32/6 26/190/6 40/153/6
f 43/65/6 61/191/6 46/71/6
f 63/100/6 61/191/6 43/68/6
f 8/9/6 43/70/6 6/10/6
f 44/67/6 43/70/6 8/157/6
f 10/24/6 52/192/6 16/25/6
f 46/82/6 52/192/6 10/193/6
f 27/39/6 10/194/6 25/40/6
f 6/7/6 10/194/6 27/148/6
f 4/4/6 35/195/6 2/5/6
f 33/64/6 35/195/6 4/159/6
f 11/14/6 45/196/6 9/15/6
f 47/72/6 45/196/6 11/140/6
