# Blender v2.92.0 OBJ File: 'InteractUV.blend'
# www.blender.org
o CanonLeg.Merged_Plane-tex.012
v -0.050000 0.450000 0.350000
v -0.050000 0.350000 0.250000
v -0.050000 0.350000 0.350000
v -0.050000 0.450000 0.250000
v -0.050000 0.450000 -0.250000
v -0.050000 0.350000 -0.350000
v -0.050000 0.350000 -0.250000
v -0.050000 0.450000 -0.350000
v -0.150000 0.450000 0.250000
v -0.150000 0.350000 0.150000
v -0.150000 0.350000 0.250000
v -0.150000 0.450000 0.150000
v -0.150000 0.450000 -0.150000
v -0.150000 0.350000 -0.250000
v -0.150000 0.350000 -0.150000
v -0.150000 0.450000 -0.250000
v -0.150000 0.350000 -0.350000
v -0.150000 0.050000 -0.450000
v -0.150000 0.050000 -0.350000
v -0.150000 0.350000 -0.450000
v -0.150000 0.350000 0.450000
v -0.150000 0.050000 0.350000
v -0.150000 0.050000 0.450000
v -0.150000 0.350000 0.350000
v -0.150000 -0.050000 -0.550000
v -0.150000 -0.050000 -0.450000
v -0.150000 0.050000 -0.550000
v -0.150000 0.050000 0.550000
v -0.150000 -0.050000 0.450000
v -0.150000 -0.050000 0.550000
v -0.250000 0.450000 0.150000
v -0.250000 0.350000 -0.150000
v -0.250000 0.350000 0.150000
v -0.250000 0.450000 -0.150000
v -0.250000 0.350000 -0.250000
v -0.250000 0.050000 -0.350000
v -0.250000 0.050000 -0.250000
v -0.250000 0.350000 -0.350000
v -0.250000 0.350000 0.350000
v -0.250000 0.050000 0.250000
v -0.250000 0.050000 0.350000
v -0.250000 0.350000 0.250000
v -0.250000 -0.050000 -0.450000
v -0.250000 -0.050000 -0.350000
v -0.250000 0.050000 -0.450000
v -0.250000 0.050000 0.450000
v -0.250000 -0.050000 0.350000
v -0.250000 -0.050000 0.450000
v -0.350000 0.350000 0.250000
v -0.350000 0.050000 -0.250000
v -0.350000 0.050000 0.250000
v -0.350000 0.350000 -0.250000
v -0.350000 -0.050000 -0.350000
v -0.350000 -0.050000 -0.250000
v -0.350000 0.050000 -0.350000
v -0.350000 0.050000 0.350000
v -0.350000 -0.050000 0.250000
v -0.350000 -0.050000 0.350000
v -0.450000 0.050000 0.250000
v -0.450000 -0.050000 -0.250000
v -0.450000 -0.050000 0.250000
v -0.450000 0.050000 -0.250000
v 0.250000 0.450000 0.350000
v 0.250000 0.350000 0.250000
v 0.250000 0.350000 0.350000
v 0.250000 0.450000 0.250000
v 0.250000 0.450000 -0.250000
v 0.250000 0.350000 -0.350000
v 0.250000 0.350000 -0.250000
v 0.250000 0.450000 -0.350000
v 0.350000 0.450000 0.250000
v 0.350000 0.350000 0.150000
v 0.350000 0.350000 0.250000
v 0.350000 0.450000 0.150000
v 0.350000 0.450000 -0.150000
v 0.350000 0.350000 -0.250000
v 0.350000 0.350000 -0.150000
v 0.350000 0.450000 -0.250000
v 0.350000 0.350000 -0.350000
v 0.350000 0.050000 -0.450000
v 0.350000 0.050000 -0.350000
v 0.350000 0.350000 -0.450000
v 0.350000 0.350000 0.450000
v 0.350000 0.050000 0.350000
v 0.350000 0.050000 0.450000
v 0.350000 0.350000 0.350000
v 0.350000 -0.050000 -0.550000
v 0.350000 -0.050000 -0.450000
v 0.350000 0.050000 -0.550000
v 0.350000 0.050000 0.550000
v 0.350000 -0.050000 0.450000
v 0.350000 -0.050000 0.550000
v 0.450000 0.450000 0.150000
v 0.450000 0.350000 -0.150000
v 0.450000 0.350000 0.150000
v 0.450000 0.450000 -0.150000
v 0.450000 0.350000 -0.250000
v 0.450000 0.050000 -0.350000
v 0.450000 0.050000 -0.250000
v 0.450000 0.350000 -0.350000
v 0.450000 0.350000 0.350000
v 0.450000 0.050000 0.250000
v 0.450000 0.050000 0.350000
v 0.450000 0.350000 0.250000
v 0.450000 -0.050000 -0.450000
v 0.450000 -0.050000 -0.350000
v 0.450000 0.050000 -0.450000
v 0.450000 0.050000 0.450000
v 0.450000 -0.050000 0.350000
v 0.450000 -0.050000 0.450000
v 0.550000 0.350000 0.250000
v 0.550000 0.050000 -0.250000
v 0.550000 0.050000 0.250000
v 0.550000 0.350000 -0.250000
v 0.550000 -0.050000 -0.350000
v 0.550000 -0.050000 -0.250000
v 0.550000 0.050000 -0.350000
v 0.550000 0.050000 0.350000
v 0.550000 -0.050000 0.250000
v 0.550000 -0.050000 0.350000
v 0.650000 0.050000 0.250000
v 0.650000 -0.050000 -0.250000
v 0.650000 -0.050000 0.250000
v 0.650000 0.050000 -0.250000
vt 0.491192 0.608079
vt 0.500992 0.608079
vt 0.491192 0.598279
vt 0.500992 0.608079
vt 0.491192 0.598279
vt 0.491192 0.608079
vt 0.500992 0.608079
vt 0.491192 0.598279
vt 0.500992 0.608079
vt 0.491192 0.598279
vt 0.491192 0.608079
vt 0.500992 0.608079
vt 0.491192 0.598279
vt 0.500992 0.608079
vt 0.491192 0.598279
vt 0.491192 0.608079
vt 0.500992 0.608079
vt 0.491192 0.598279
vt 0.500992 0.608079
vt 0.491192 0.598279
vt 0.491192 0.608079
vt 0.500992 0.608079
vt 0.491192 0.598279
vt 0.500992 0.608079
vt 0.491192 0.598279
vt 0.491192 0.608079
vt 0.500992 0.608079
vt 0.491192 0.598279
vt 0.500992 0.608079
vt 0.491192 0.598279
vt 0.491192 0.608079
vt 0.500992 0.608079
vt 0.491192 0.598279
vt 0.500992 0.608079
vt 0.491192 0.598279
vt 0.491192 0.608079
vt 0.500992 0.608079
vt 0.491192 0.598279
vt 0.500992 0.608079
vt 0.491192 0.598279
vt 0.491192 0.608079
vt 0.500992 0.608079
vt 0.491192 0.598279
vt 0.500992 0.608079
vt 0.491192 0.598279
vt 0.491192 0.608079
vt 0.500992 0.608079
vt 0.491192 0.598279
vt 0.500992 0.608079
vt 0.491192 0.598279
vt 0.491192 0.608079
vt 0.500992 0.608079
vt 0.491192 0.598279
vt 0.500992 0.608079
vt 0.491192 0.598279
vt 0.491192 0.608079
vt 0.500992 0.608079
vt 0.491192 0.598279
vt 0.500992 0.608079
vt 0.491192 0.598279
vt 0.491192 0.608079
vt 0.500992 0.608079
vt 0.491192 0.598279
vt 0.500992 0.608079
vt 0.491192 0.598279
vt 0.491192 0.608079
vt 0.500992 0.608079
vt 0.491192 0.598279
vt 0.500992 0.608079
vt 0.491192 0.598279
vt 0.491192 0.608079
vt 0.500992 0.608079
vt 0.491192 0.598279
vt 0.500992 0.608079
vt 0.491192 0.598279
vt 0.491192 0.608079
vt 0.500992 0.608079
vt 0.491192 0.598279
vt 0.500992 0.608079
vt 0.491192 0.598279
vt 0.491192 0.608079
vt 0.500992 0.608079
vt 0.491192 0.598279
vt 0.500992 0.608079
vt 0.491192 0.598279
vt 0.500992 0.608079
vt 0.491192 0.608079
vt 0.491192 0.598279
vt 0.500992 0.608079
vt 0.491192 0.598279
vt 0.500992 0.608079
vt 0.491192 0.608079
vt 0.491192 0.598279
vt 0.500992 0.608079
vt 0.491192 0.598279
vt 0.500992 0.608079
vt 0.491192 0.608079
vt 0.491192 0.598279
vt 0.500992 0.608079
vt 0.491192 0.598279
vt 0.500992 0.608079
vt 0.491192 0.608079
vt 0.491192 0.598279
vt 0.500992 0.608079
vt 0.491192 0.598279
vt 0.500992 0.608079
vt 0.491192 0.608079
vt 0.491192 0.598279
vt 0.500992 0.608079
vt 0.491192 0.598279
vt 0.500992 0.608079
vt 0.491192 0.608079
vt 0.491192 0.598279
vt 0.500992 0.608079
vt 0.491192 0.598279
vt 0.500992 0.608079
vt 0.491192 0.608079
vt 0.491192 0.598279
vt 0.500992 0.608079
vt 0.491192 0.598279
vt 0.500992 0.608079
vt 0.491192 0.608079
vt 0.491192 0.598279
vt 0.500992 0.608079
vt 0.491192 0.598279
vt 0.500992 0.608079
vt 0.491192 0.608079
vt 0.491192 0.598279
vt 0.500992 0.608079
vt 0.491192 0.598279
vt 0.500992 0.608079
vt 0.491192 0.608079
vt 0.491192 0.598279
vt 0.500992 0.608079
vt 0.491192 0.598279
vt 0.500992 0.608079
vt 0.491192 0.608079
vt 0.491192 0.598279
vt 0.500992 0.608079
vt 0.491192 0.598279
vt 0.500992 0.608079
vt 0.491192 0.608079
vt 0.491192 0.598279
vt 0.500992 0.608079
vt 0.491192 0.598279
vt 0.500992 0.608079
vt 0.491192 0.608079
vt 0.491192 0.598279
vt 0.500992 0.608079
vt 0.491192 0.598279
vt 0.500992 0.608079
vt 0.491192 0.608079
vt 0.491192 0.598279
vt 0.500992 0.608079
vt 0.491192 0.598279
vt 0.500992 0.608079
vt 0.491192 0.608079
vt 0.491192 0.598279
vt 0.500992 0.608079
vt 0.491192 0.598279
vt 0.500992 0.608079
vt 0.491192 0.608079
vt 0.491192 0.598279
vt 0.500992 0.608079
vt 0.491192 0.598279
vt 0.500992 0.608079
vt 0.491192 0.608079
vt 0.491192 0.598279
vt 0.500992 0.608079
vt 0.491192 0.598279
vt 0.500992 0.608079
vt 0.491192 0.608079
vt 0.491192 0.608079
vt 0.491192 0.608079
vt 0.491192 0.608079
vt 0.491192 0.608079
vt 0.500992 0.608079
vt 0.500992 0.608079
vt 0.500992 0.608079
vt 0.491192 0.608079
vt 0.500992 0.608079
vt 0.491192 0.608079
vt 0.491192 0.608079
vt 0.491192 0.608079
vt 0.500992 0.608079
vt 0.500992 0.608079
vt 0.491192 0.608079
vt 0.491192 0.608079
vt 0.491192 0.608079
vt 0.491192 0.608079
vt 0.491192 0.598279
vt 0.491192 0.598279
vt 0.491192 0.608079
vt 0.491192 0.598279
vt 0.491192 0.608079
vt 0.491192 0.598279
vt 0.491192 0.608079
vt 0.491192 0.598279
vt 0.491192 0.608079
vt 0.491192 0.598279
vt 0.491192 0.608079
vt 0.491192 0.598279
vt 0.491192 0.598279
vt 0.500992 0.608079
vt 0.491192 0.598279
vt 0.491192 0.608079
vt 0.491192 0.608079
vt 0.500992 0.608079
vt 0.500992 0.608079
vt 0.491192 0.598279
vt 0.491192 0.608079
vt 0.491192 0.608079
vt 0.500992 0.608079
vt 0.491192 0.608079
vt 0.491192 0.598279
vt 0.491192 0.608079
vt 0.491192 0.598279
vt 0.500992 0.608079
vt 0.491192 0.598279
vt 0.491192 0.608079
vt 0.491192 0.608079
vt 0.500992 0.608079
vt 0.491192 0.608079
vt 0.491192 0.598279
vt 0.491192 0.608079
vt 0.491192 0.598279
vt 0.500992 0.608079
vt 0.491192 0.598279
vt 0.491192 0.608079
vt 0.491192 0.608079
vt 0.491192 0.598279
vt 0.500992 0.608079
vt 0.491192 0.608079
vt 0.500992 0.608079
vt 0.491192 0.598279
vt 0.491192 0.608079
vt 0.491192 0.598279
vt 0.491192 0.598279
vt 0.491192 0.598279
vt 0.491192 0.608079
vt 0.491192 0.608079
vt 0.500992 0.608079
vt 0.491192 0.608079
vt 0.500992 0.608079
vt 0.491192 0.598279
vt 0.491192 0.608079
vt 0.491192 0.598279
vt 0.491192 0.598279
vt 0.491192 0.608079
vt 0.500992 0.608079
vt 0.491192 0.598279
vt 0.500992 0.608079
vt 0.491192 0.598279
vt 0.491192 0.598279
vt 0.491192 0.608079
vt 0.491192 0.598279
vt 0.491192 0.598279
vt 0.491192 0.598279
vt 0.491192 0.598279
vt 0.491192 0.598279
vt 0.491192 0.598279
vt 0.491192 0.598279
vt 0.491192 0.608079
vt 0.500992 0.608079
vt 0.491192 0.608079
vt 0.500992 0.608079
vt 0.500992 0.608079
vt 0.491192 0.608079
vt 0.500992 0.608079
vt 0.491192 0.608079
vt 0.500992 0.608079
vt 0.491192 0.598279
vt 0.491192 0.608079
vt 0.500992 0.608079
vt 0.491192 0.608079
vt 0.500992 0.608079
vt 0.491192 0.598279
vt 0.500992 0.608079
vt 0.491192 0.608079
vt 0.500992 0.608079
vt 0.491192 0.608079
vt 0.500992 0.608079
vt 0.500992 0.608079
vt 0.500992 0.608079
vt 0.491192 0.608079
vt 0.500992 0.608079
vt 0.500992 0.608079
vt 0.491192 0.608079
vt 0.500992 0.608079
vt 0.491192 0.608079
vt 0.500992 0.608079
vt 0.500992 0.608079
vt 0.500992 0.608079
vt 0.500992 0.608079
vt 0.500992 0.608079
vt 0.491192 0.608079
vt 0.491192 0.598279
vt 0.500992 0.608079
vt 0.491192 0.598279
vt 0.491192 0.608079
vt 0.491192 0.608079
vt 0.491192 0.608079
vt 0.491192 0.608079
vn -1.0000 0.0000 0.0000
vn 1.0000 0.0000 0.0000
vn 0.0000 -1.0000 0.0000
vn 0.0000 1.0000 0.0000
vn 0.0000 0.0000 1.0000
vn 0.0000 0.0000 -1.0000
s off
f 1/1/1 2/2/1 3/3/1
f 1/1/1 4/4/1 2/5/1
f 5/6/1 6/7/1 7/8/1
f 5/6/1 8/9/1 6/10/1
f 9/11/1 10/12/1 11/13/1
f 9/11/1 12/14/1 10/15/1
f 13/16/1 14/17/1 15/18/1
f 13/16/1 16/19/1 14/20/1
f 17/21/1 18/22/1 19/23/1
f 17/21/1 20/24/1 18/25/1
f 21/26/1 22/27/1 23/28/1
f 21/26/1 24/29/1 22/30/1
f 18/31/1 25/32/1 26/33/1
f 18/31/1 27/34/1 25/35/1
f 28/36/1 29/37/1 30/38/1
f 28/36/1 23/39/1 29/40/1
f 31/41/1 32/42/1 33/43/1
f 31/41/1 34/44/1 32/45/1
f 35/46/1 36/47/1 37/48/1
f 35/46/1 38/49/1 36/50/1
f 39/51/1 40/52/1 41/53/1
f 39/51/1 42/54/1 40/55/1
f 36/56/1 43/57/1 44/58/1
f 36/56/1 45/59/1 43/60/1
f 46/61/1 47/62/1 48/63/1
f 46/61/1 41/64/1 47/65/1
f 49/66/1 50/67/1 51/68/1
f 49/66/1 52/69/1 50/70/1
f 50/71/1 53/72/1 54/73/1
f 50/71/1 55/74/1 53/75/1
f 56/76/1 57/77/1 58/78/1
f 56/76/1 51/79/1 57/80/1
f 59/81/1 60/82/1 61/83/1
f 59/81/1 62/84/1 60/85/1
f 64/86/2 63/87/2 65/88/2
f 66/89/2 63/87/2 64/90/2
f 68/91/2 67/92/2 69/93/2
f 70/94/2 67/92/2 68/95/2
f 72/96/2 71/97/2 73/98/2
f 74/99/2 71/97/2 72/100/2
f 76/101/2 75/102/2 77/103/2
f 78/104/2 75/102/2 76/105/2
f 80/106/2 79/107/2 81/108/2
f 82/109/2 79/107/2 80/110/2
f 84/111/2 83/112/2 85/113/2
f 86/114/2 83/112/2 84/115/2
f 87/116/2 80/117/2 88/118/2
f 89/119/2 80/117/2 87/120/2
f 91/121/2 90/122/2 92/123/2
f 85/124/2 90/122/2 91/125/2
f 94/126/2 93/127/2 95/128/2
f 96/129/2 93/127/2 94/130/2
f 98/131/2 97/132/2 99/133/2
f 100/134/2 97/132/2 98/135/2
f 102/136/2 101/137/2 103/138/2
f 104/139/2 101/137/2 102/140/2
f 105/141/2 98/142/2 106/143/2
f 107/144/2 98/142/2 105/145/2
f 109/146/2 108/147/2 110/148/2
f 103/149/2 108/147/2 109/150/2
f 112/151/2 111/152/2 113/153/2
f 114/154/2 111/152/2 112/155/2
f 115/156/2 112/157/2 116/158/2
f 117/159/2 112/157/2 115/160/2
f 119/161/2 118/162/2 120/163/2
f 113/164/2 118/162/2 119/165/2
f 122/166/2 121/167/2 123/168/2
f 124/169/2 121/167/2 122/170/2
f 116/171/3 123/172/3 119/165/3
f 116/171/3 119/173/3 106/143/3
f 122/166/3 123/172/3 116/158/3
f 115/156/3 116/174/3 106/143/3
f 119/161/3 109/175/3 106/143/3
f 109/146/3 44/176/3 106/143/3
f 120/177/3 109/175/3 119/165/3
f 106/178/3 44/176/3 88/118/3
f 44/179/3 109/175/3 47/65/3
f 105/141/3 106/180/3 88/118/3
f 26/181/3 88/182/3 44/58/3
f 44/179/3 47/183/3 57/80/3
f 91/121/3 47/183/3 109/150/3
f 43/57/3 26/184/3 44/58/3
f 25/32/3 88/182/3 26/33/3
f 54/185/3 44/176/3 57/80/3
f 57/77/3 47/183/3 58/78/3
f 110/186/3 91/187/3 109/150/3
f 91/121/3 29/188/3 47/65/3
f 87/116/3 88/182/3 25/35/3
f 54/185/3 57/189/3 60/85/3
f 53/72/3 44/176/3 54/73/3
f 47/62/3 29/188/3 48/63/3
f 91/121/3 92/190/3 29/40/3
f 60/82/3 57/189/3 61/83/3
f 29/37/3 92/190/3 30/38/3
f 121/167/4 112/151/4 113/153/4
f 121/167/4 124/169/4 112/155/4
f 112/157/4 98/131/4 99/133/4
f 112/157/4 117/159/4 98/135/4
f 118/162/4 102/136/4 103/138/4
f 118/162/4 113/164/4 102/140/4
f 98/142/4 80/106/4 81/108/4
f 98/142/4 107/144/4 80/110/4
f 108/147/4 84/111/4 85/113/4
f 108/147/4 103/149/4 84/115/4
f 80/117/4 27/34/4 18/25/4
f 80/117/4 89/119/4 27/191/4
f 90/122/4 23/39/4 28/192/4
f 90/122/4 85/124/4 23/28/4
f 19/193/4 45/59/4 36/50/4
f 19/193/4 18/22/4 45/194/4
f 23/195/4 41/64/4 46/196/4
f 23/195/4 22/27/4 41/53/4
f 37/197/4 55/74/4 50/70/4
f 37/197/4 36/47/4 55/198/4
f 41/199/4 51/79/4 56/200/4
f 41/199/4 40/52/4 51/68/4
f 51/201/4 62/84/4 59/202/4
f 51/201/4 50/67/4 62/203/4
f 111/152/4 95/204/4 104/205/4
f 104/206/4 95/204/4 72/100/4
f 111/152/4 114/154/4 95/128/4
f 104/206/4 72/96/4 73/98/4
f 114/207/4 94/126/4 95/128/4
f 101/137/4 104/139/4 73/98/4
f 114/207/4 97/208/4 94/130/4
f 101/137/4 73/209/4 86/210/4
f 94/211/4 97/208/4 76/105/4
f 86/212/4 73/209/4 64/90/4
f 97/132/4 79/213/4 76/105/4
f 94/211/4 76/101/4 77/103/4
f 86/212/4 64/86/4 65/88/4
f 76/214/4 79/213/4 68/95/4
f 97/132/4 100/134/4 79/215/4
f 83/112/4 86/114/4 65/88/4
f 68/216/4 79/213/4 82/217/4
f 76/214/4 68/91/4 69/93/4
f 83/112/4 65/218/4 21/219/4
f 20/220/4 68/91/4 82/217/4
f 65/221/4 3/222/4 21/219/4
f 6/223/4 68/91/4 20/224/4
f 3/225/4 24/29/4 21/219/4
f 6/223/4 20/24/4 17/226/4
f 3/225/4 11/227/4 24/228/4
f 7/229/4 6/7/4 17/226/4
f 24/230/4 11/227/4 42/231/4
f 3/225/4 2/2/4 11/13/4
f 7/229/4 17/232/4 14/20/4
f 11/233/4 33/234/4 42/231/4
f 24/230/4 42/54/4 39/235/4
f 14/236/4 17/232/4 38/237/4
f 49/66/4 42/54/4 33/43/4
f 11/233/4 10/12/4 33/43/4
f 14/236/4 38/49/4 35/238/4
f 49/66/4 33/234/4 52/239/4
f 15/240/4 14/17/4 35/238/4
f 33/241/4 32/42/4 52/239/4
f 15/240/4 35/242/4 32/45/4
f 32/243/4 35/242/4 52/239/4
f 93/127/4 75/244/4 74/245/4
f 74/246/4 75/244/4 67/247/4
f 93/127/4 96/129/4 75/248/4
f 75/102/4 78/104/4 67/247/4
f 12/249/4 74/99/4 67/247/4
f 67/92/4 5/250/4 12/251/4
f 12/249/4 66/89/4 74/245/4
f 5/6/4 13/252/4 12/251/4
f 67/92/4 8/9/4 5/253/4
f 74/246/4 66/89/4 71/254/4
f 4/255/4 66/89/4 12/251/4
f 12/249/4 13/252/4 34/256/4
f 5/6/4 16/19/4 13/257/4
f 67/92/4 70/94/4 8/258/4
f 4/255/4 12/14/4 9/259/4
f 63/87/4 66/89/4 4/260/4
f 12/249/4 34/44/4 31/261/4
f 63/87/4 4/4/4 1/262/4
f 95/263/5 74/99/5 72/100/5
f 95/263/5 93/264/5 74/245/5
f 10/265/5 31/266/5 33/43/5
f 10/265/5 12/14/5 31/261/5
f 123/172/5 113/164/5 119/165/5
f 123/172/5 121/267/5 113/153/5
f 113/268/5 104/139/5 102/140/5
f 113/268/5 111/269/5 104/205/5
f 73/270/5 66/89/5 64/90/5
f 73/270/5 71/271/5 66/272/5
f 2/273/5 9/274/5 11/13/5
f 2/273/5 4/4/5 9/259/5
f 40/275/5 49/276/5 51/68/5
f 40/275/5 42/54/5 49/277/5
f 57/189/5 59/278/5 61/83/5
f 57/189/5 51/79/5 59/202/5
f 120/279/5 103/149/5 109/150/5
f 120/279/5 118/280/5 103/138/5
f 103/281/5 86/114/5 84/115/5
f 103/281/5 101/282/5 86/210/5
f 65/221/5 1/283/5 3/3/5
f 65/221/5 63/284/5 1/262/5
f 22/285/5 39/286/5 41/53/5
f 22/285/5 24/29/5 39/235/5
f 47/183/5 56/287/5 58/78/5
f 47/183/5 41/64/5 56/200/5
f 110/288/5 85/124/5 91/125/5
f 110/288/5 108/289/5 85/113/5
f 85/290/5 21/291/5 23/28/5
f 85/290/5 83/292/5 21/219/5
f 29/188/5 46/293/5 48/63/5
f 29/188/5 23/39/5 46/196/5
f 92/190/5 28/294/5 30/38/5
f 92/190/5 90/295/5 28/192/5
f 75/244/6 94/211/6 77/103/6
f 96/129/6 94/211/6 75/248/6
f 34/44/6 15/240/6 32/45/6
f 13/252/6 15/240/6 34/256/6
f 112/151/6 122/296/6 116/158/6
f 124/169/6 122/296/6 112/155/6
f 97/208/6 112/157/6 99/133/6
f 114/154/6 112/157/6 97/297/6
f 67/298/6 76/214/6 69/93/6
f 78/104/6 76/214/6 67/247/6
f 16/19/6 7/229/6 14/20/6
f 5/250/6 7/229/6 16/299/6
f 52/69/6 37/197/6 50/70/6
f 35/242/6 37/197/6 52/239/6
f 62/84/6 54/300/6 60/85/6
f 50/67/6 54/300/6 62/203/6
f 98/131/6 115/301/6 106/143/6
f 117/159/6 115/301/6 98/135/6
f 79/213/6 98/142/6 81/108/6
f 100/134/6 98/142/6 79/215/6
f 8/9/6 68/216/6 6/10/6
f 70/94/6 68/216/6 8/258/6
f 38/49/6 19/193/6 36/50/6
f 17/232/6 19/193/6 38/237/6
f 55/74/6 44/176/6 53/75/6
f 36/47/6 44/176/6 55/198/6
f 80/106/6 105/302/6 88/118/6
f 107/144/6 105/302/6 80/110/6
f 20/24/6 80/117/6 18/25/6
f 82/109/6 80/117/6 20/224/6
f 45/59/6 26/184/6 43/60/6
f 18/22/6 26/184/6 45/194/6
f 27/34/6 87/303/6 25/35/6
f 89/119/6 87/303/6 27/191/6
