# Blender v2.92.0 OBJ File: ''
# www.blender.org
o Cursor.Merged_Plane-tex.002
v -0.100000 0.350000 0.050000
v -0.100000 0.250000 -0.050000
v -0.100000 0.250000 0.050000
v -0.100000 0.350000 -0.050000
v -0.300000 0.250000 0.050000
v -0.300000 0.150000 -0.050000
v -0.300000 0.150000 0.050000
v -0.300000 0.250000 -0.050000
v 0.000000 0.650000 0.050000
v 0.000000 0.350000 -0.050000
v 0.000000 0.350000 0.050000
v 0.000000 0.650000 -0.050000
v 0.100000 0.750000 0.050000
v 0.100000 0.650000 -0.050000
v 0.100000 0.650000 0.050000
v 0.100000 0.750000 -0.050000
v -0.400000 -0.650000 0.050000
v -0.400000 -0.750000 -0.050000
v -0.400000 -0.750000 0.050000
v -0.400000 -0.650000 -0.050000
v -0.500000 0.150000 0.050000
v -0.500000 0.050000 -0.050000
v -0.500000 0.050000 0.050000
v -0.500000 0.150000 -0.050000
v -0.500000 -0.550000 0.050000
v -0.500000 -0.650000 -0.050000
v -0.500000 -0.650000 0.050000
v -0.500000 -0.550000 -0.050000
v -0.600000 0.050000 0.050000
v -0.600000 -0.550000 -0.050000
v -0.600000 -0.550000 0.050000
v -0.600000 0.050000 -0.050000
v 0.400000 0.250000 0.050000
v 0.400000 0.150000 -0.050000
v 0.400000 0.150000 0.050000
v 0.400000 0.250000 -0.050000
v 0.200000 0.750000 0.050000
v 0.200000 0.650000 -0.050000
v 0.200000 0.650000 0.050000
v 0.200000 0.750000 -0.050000
v 0.200000 -0.650000 0.050000
v 0.200000 -0.750000 -0.050000
v 0.200000 -0.750000 0.050000
v 0.200000 -0.650000 -0.050000
v 0.300000 0.650000 0.050000
v 0.300000 0.150000 -0.050000
v 0.300000 0.150000 0.050000
v 0.300000 0.650000 -0.050000
v 0.300000 -0.450000 0.050000
v 0.300000 -0.650000 -0.050000
v 0.300000 -0.650000 0.050000
v 0.300000 -0.450000 -0.050000
v 0.400000 -0.350000 0.050000
v 0.400000 -0.450000 -0.050000
v 0.400000 -0.450000 0.050000
v 0.400000 -0.350000 -0.050000
v 0.500000 -0.150000 0.050000
v 0.500000 -0.350000 -0.050000
v 0.500000 -0.350000 0.050000
v 0.500000 -0.150000 -0.050000
v 0.600000 0.250000 0.050000
v 0.600000 -0.150000 -0.050000
v 0.600000 -0.150000 0.050000
v 0.600000 0.250000 -0.050000
vt 0.781272 0.968728
vt 0.812456 0.968728
vt 0.781272 0.937544
vt 0.812456 0.968728
vt 0.781272 0.937544
vt 0.781272 0.968728
vt 0.812456 0.968728
vt 0.781272 0.937544
vt 0.812456 0.968728
vt 0.781272 0.937544
vt 0.781272 0.968728
vt 0.812456 0.968728
vt 0.781272 0.937544
vt 0.812456 0.968728
vt 0.781272 0.937544
vt 0.781272 0.968728
vt 0.812456 0.968728
vt 0.781272 0.937544
vt 0.812456 0.968728
vt 0.781272 0.937544
vt 0.781272 0.968728
vt 0.812456 0.968728
vt 0.781272 0.937544
vt 0.812456 0.968728
vt 0.781272 0.937544
vt 0.781272 0.968728
vt 0.812456 0.968728
vt 0.781272 0.937544
vt 0.812456 0.968728
vt 0.781272 0.937544
vt 0.781272 0.968728
vt 0.812456 0.968728
vt 0.781272 0.937544
vt 0.812456 0.968728
vt 0.781272 0.937544
vt 0.781272 0.968728
vt 0.812456 0.968728
vt 0.781272 0.937544
vt 0.812456 0.968728
vt 0.781272 0.937544
vt 0.781272 0.968728
vt 0.812456 0.968728
vt 0.781272 0.937544
vt 0.812456 0.968728
vt 0.781272 0.937544
vt 0.812456 0.968728
vt 0.781272 0.968728
vt 0.781272 0.937544
vt 0.812456 0.968728
vt 0.781272 0.937544
vt 0.812456 0.968728
vt 0.781272 0.968728
vt 0.781272 0.937544
vt 0.812456 0.968728
vt 0.781272 0.937544
vt 0.812456 0.968728
vt 0.781272 0.968728
vt 0.781272 0.937544
vt 0.812456 0.968728
vt 0.781272 0.937544
vt 0.812456 0.968728
vt 0.781272 0.968728
vt 0.781272 0.937544
vt 0.812456 0.968728
vt 0.781272 0.937544
vt 0.812456 0.968728
vt 0.781272 0.968728
vt 0.781272 0.937544
vt 0.812456 0.968728
vt 0.781272 0.937544
vt 0.812456 0.968728
vt 0.781272 0.968728
vt 0.781272 0.937544
vt 0.812456 0.968728
vt 0.781272 0.937544
vt 0.812456 0.968728
vt 0.781272 0.968728
vt 0.781272 0.937544
vt 0.812456 0.968728
vt 0.781272 0.937544
vt 0.781272 0.968728
vt 0.781272 0.937544
vt 0.781272 0.937544
vt 0.781272 0.968728
vt 0.781272 0.968728
vt 0.781272 0.937544
vt 0.781272 0.937544
vt 0.781272 0.968728
vt 0.781272 0.937544
vt 0.781272 0.937544
vt 0.781272 0.968728
vt 0.781272 0.937544
vt 0.781272 0.937544
vt 0.781272 0.968728
vt 0.781272 0.937544
vt 0.781272 0.937544
vt 0.781272 0.968728
vt 0.781272 0.968728
vt 0.781272 0.937544
vt 0.781272 0.937544
vt 0.781272 0.937544
vt 0.781272 0.937544
vt 0.781272 0.968728
vt 0.781272 0.937544
vt 0.781272 0.937544
vt 0.781272 0.968728
vt 0.781272 0.937544
vt 0.781272 0.937544
vt 0.781272 0.968728
vt 0.781272 0.937544
vt 0.781272 0.937544
vt 0.781272 0.937544
vt 0.781272 0.937544
vt 0.125000 0.906281
vt 0.156180 0.906281
vt 0.093820 0.937438
vt 0.156226 0.906222
vt 0.156226 0.864603
vt 0.093798 0.875008
vt 0.281312 0.734406
vt 0.343688 0.781188
vt 0.312500 0.734406
vt 0.812456 0.968728
vt 0.093717 0.796839
vt 0.062500 0.718781
vt 0.031283 0.750005
vt 0.812456 0.968728
vt 0.812478 0.867210
vt 0.781293 0.875013
vt 0.812478 0.914027
vt 0.281202 0.937468
vt 0.156274 0.718802
vt 0.156274 0.906230
vt 0.812456 0.968728
vt 0.687500 0.906218
vt 0.718721 0.781294
vt 0.656279 0.874987
vt 0.624982 0.906206
vt 0.531298 0.718805
vt 0.640596 0.843739
vt 0.781279 0.906239
vt 0.799996 0.843805
vt 0.812474 0.937456
vt 0.812456 0.968728
vt 0.812456 0.968728
vt 0.531227 0.718771
vt 0.281283 0.750013
vt 0.468741 0.937466
vt 0.812456 0.968728
vt 0.093820 0.937469
vt 0.125000 0.937469
vt 0.156180 0.906313
vt 0.093798 0.828093
vt 0.156226 0.812480
vt 0.156226 0.718802
vt 0.062500 0.911427
vt 0.031328 0.906229
vt 0.093672 0.869844
vt 0.812456 0.968728
vt 0.781272 0.968728
vt 0.812456 0.968728
vt 0.812456 0.968728
vt 0.812456 0.968728
vt 0.130182 0.937447
vt 0.093793 0.906277
vt 0.124983 0.906277
vt 0.812456 0.968728
vt 0.812456 0.968728
vt 0.812456 0.968728
vt 0.812456 0.968728
vt 0.781272 0.937544
vt 0.812456 0.968728
vt 0.812456 0.968728
vt 0.156180 0.906281
vt 0.125000 0.906281
vt 0.093820 0.937438
vt 0.156226 0.864603
vt 0.156226 0.906222
vt 0.093798 0.875008
vt 0.343688 0.781188
vt 0.281312 0.734406
vt 0.312500 0.734406
vt 0.781272 0.968728
vt 0.062500 0.718781
vt 0.093717 0.796839
vt 0.031283 0.750005
vt 0.781272 0.968728
vt 0.781293 0.875013
vt 0.812478 0.867210
vt 0.812478 0.914027
vt 0.156274 0.718802
vt 0.281202 0.937468
vt 0.156274 0.906230
vt 0.781272 0.968728
vt 0.718721 0.781294
vt 0.687500 0.906218
vt 0.656279 0.874987
vt 0.531298 0.718805
vt 0.624982 0.906206
vt 0.640596 0.843739
vt 0.799996 0.843805
vt 0.781279 0.906239
vt 0.812474 0.937456
vt 0.781272 0.968728
vt 0.781272 0.968728
vt 0.281283 0.750013
vt 0.531227 0.718771
vt 0.468741 0.937466
vt 0.781272 0.968728
vt 0.125000 0.937469
vt 0.093820 0.937469
vt 0.156180 0.906313
vt 0.156226 0.812480
vt 0.093798 0.828093
vt 0.156226 0.718802
vt 0.031328 0.906229
vt 0.062500 0.911427
vt 0.093672 0.869844
vt 0.781272 0.968728
vt 0.781272 0.968728
vt 0.781272 0.968728
vt 0.781272 0.968728
vt 0.093793 0.906277
vt 0.130182 0.937447
vt 0.124983 0.906277
vt 0.781272 0.968728
vt 0.781272 0.968728
vt 0.781272 0.937544
vt 0.781272 0.968728
vn -1.0000 0.0000 0.0000
vn 1.0000 0.0000 0.0000
vn 0.0000 -1.0000 0.0000
vn 0.0000 1.0000 0.0000
vn 0.0000 0.0000 1.0000
vn 0.0000 0.0000 -1.0000
s off
f 1/1/1 2/2/1 3/3/1
f 1/1/1 4/4/1 2/5/1
f 5/6/1 6/7/1 7/8/1
f 5/6/1 8/9/1 6/10/1
f 9/11/1 10/12/1 11/13/1
f 9/11/1 12/14/1 10/15/1
f 13/16/1 14/17/1 15/18/1
f 13/16/1 16/19/1 14/20/1
f 17/21/1 18/22/1 19/23/1
f 17/21/1 20/24/1 18/25/1
f 21/26/1 22/27/1 23/28/1
f 21/26/1 24/29/1 22/30/1
f 25/31/1 26/32/1 27/33/1
f 25/31/1 28/34/1 26/35/1
f 29/36/1 30/37/1 31/38/1
f 29/36/1 32/39/1 30/40/1
f 33/41/1 34/42/1 35/43/1
f 33/41/1 36/44/1 34/45/1
f 38/46/2 37/47/2 39/48/2
f 40/49/2 37/47/2 38/50/2
f 42/51/2 41/52/2 43/53/2
f 44/54/2 41/52/2 42/55/2
f 46/56/2 45/57/2 47/58/2
f 48/59/2 45/57/2 46/60/2
f 50/61/2 49/62/2 51/63/2
f 52/64/2 49/62/2 50/65/2
f 54/66/2 53/67/2 55/68/2
f 56/69/2 53/67/2 54/70/2
f 58/71/2 57/72/2 59/73/2
f 60/74/2 57/72/2 58/75/2
f 62/76/2 61/77/2 63/78/2
f 64/79/2 61/77/2 62/80/2
f 44/54/3 51/81/3 41/82/3
f 50/61/3 51/81/3 44/83/3
f 26/32/3 17/21/3 27/33/3
f 20/24/3 17/21/3 26/35/3
f 18/22/3 43/84/3 19/23/3
f 42/51/3 43/84/3 18/25/3
f 30/37/3 25/31/3 31/38/3
f 28/34/3 25/31/3 30/40/3
f 52/64/3 55/85/3 49/86/3
f 54/66/3 55/85/3 52/87/3
f 56/69/3 59/88/3 53/89/3
f 58/71/3 59/88/3 56/90/3
f 60/74/3 63/91/3 57/92/3
f 62/76/3 63/91/3 60/93/3
f 23/94/4 32/39/4 29/95/4
f 23/94/4 22/27/4 32/96/4
f 35/97/4 46/56/4 47/58/4
f 35/97/4 34/42/4 46/60/4
f 7/98/4 24/29/4 21/99/4
f 7/98/4 6/7/4 24/100/4
f 61/77/4 36/44/4 33/101/4
f 61/77/4 64/79/4 36/102/4
f 3/103/4 8/9/4 5/104/4
f 3/103/4 2/2/4 8/105/4
f 11/106/4 4/4/4 1/107/4
f 11/106/4 10/12/4 4/108/4
f 45/57/4 38/46/4 39/48/4
f 45/57/4 48/59/4 38/50/4
f 15/109/4 12/14/4 9/110/4
f 15/109/4 14/17/4 12/111/4
f 37/47/4 16/19/4 13/112/4
f 37/47/4 40/49/4 16/113/4
f 57/114/5 63/115/5 35/116/5
f 63/117/5 61/118/5 35/119/5
f 47/120/5 57/121/5 35/122/5
f 61/77/5 33/123/5 35/43/5
f 47/124/5 53/125/5 57/126/5
f 53/67/5 59/127/5 57/92/5
f 49/128/5 53/129/5 47/130/5
f 3/131/5 49/132/5 47/133/5
f 49/62/5 55/134/5 53/89/5
f 3/135/5 47/136/5 11/137/5
f 7/138/5 49/139/5 3/140/5
f 39/141/5 11/142/5 47/143/5
f 11/106/5 1/144/5 3/3/5
f 3/103/5 5/145/5 7/8/5
f 25/146/5 49/147/5 7/148/5
f 45/57/5 39/149/5 47/58/5
f 39/150/5 15/151/5 11/152/5
f 7/153/5 23/154/5 25/155/5
f 25/156/5 17/157/5 49/158/5
f 15/109/5 9/159/5 11/13/5
f 39/160/5 13/161/5 15/18/5
f 25/31/5 23/162/5 29/95/5
f 7/98/5 21/163/5 23/28/5
f 49/164/5 17/165/5 41/166/5
f 17/21/5 25/167/5 27/33/5
f 39/160/5 37/168/5 13/112/5
f 25/31/5 29/169/5 31/38/5
f 43/84/5 41/170/5 17/171/5
f 51/81/5 49/172/5 41/82/5
f 43/84/5 17/173/5 19/23/5
f 62/174/6 60/175/6 34/176/6
f 64/177/6 62/178/6 34/179/6
f 60/180/6 46/181/6 34/182/6
f 36/44/6 64/183/6 34/45/6
f 56/184/6 46/185/6 60/186/6
f 58/71/6 56/187/6 60/93/6
f 56/188/6 52/189/6 46/190/6
f 52/191/6 2/192/6 46/193/6
f 54/66/6 52/194/6 56/90/6
f 46/195/6 2/196/6 10/197/6
f 52/198/6 6/199/6 2/200/6
f 10/201/6 38/202/6 46/203/6
f 4/4/6 10/204/6 2/5/6
f 8/9/6 2/205/6 6/10/6
f 52/206/6 28/207/6 6/208/6
f 38/46/6 48/209/6 46/60/6
f 14/210/6 38/211/6 10/212/6
f 22/213/6 6/214/6 28/215/6
f 20/216/6 28/217/6 52/218/6
f 12/14/6 14/219/6 10/15/6
f 16/19/6 38/220/6 14/20/6
f 22/27/6 28/221/6 32/96/6
f 24/29/6 6/222/6 22/30/6
f 20/223/6 52/224/6 44/225/6
f 28/34/6 20/226/6 26/35/6
f 40/49/6 38/220/6 16/113/6
f 32/39/6 28/221/6 30/40/6
f 44/54/6 42/227/6 20/228/6
f 52/64/6 50/229/6 44/83/6
f 20/24/6 42/227/6 18/25/6
