# Blender v2.92.0 OBJ File: 'InteractUV.blend'
# www.blender.org
o Spike.Merged_Plane-tex.009
v -0.050000 1.450000 0.050000
v -0.050000 1.250000 -0.050000
v -0.050000 0.850000 0.050000
v -0.050000 0.850000 -0.050000
v -0.050000 1.450000 -0.050000
v -0.050000 1.250000 -0.150000
v -0.050000 0.650000 -0.150000
v -0.050000 0.650000 -0.050000
v -0.050000 0.850000 0.150000
v -0.050000 0.250000 0.050000
v -0.050000 0.250000 0.150000
v -0.050000 0.150000 -0.250000
v -0.050000 0.150000 -0.150000
v -0.050000 0.650000 -0.250000
v 0.050000 0.850000 -0.150000
v 0.050000 0.650000 -0.250000
v 0.050000 0.650000 -0.150000
v 0.050000 0.850000 -0.250000
v 0.050000 0.250000 0.250000
v 0.050000 0.150000 0.150000
v 0.050000 0.150000 0.250000
v 0.050000 0.250000 0.150000
v -0.150000 0.850000 0.050000
v -0.150000 0.650000 -0.050000
v -0.150000 0.250000 0.050000
v -0.150000 0.250000 -0.150000
v -0.150000 0.850000 -0.050000
v -0.150000 0.650000 -0.150000
v -0.150000 0.150000 -0.250000
v -0.150000 -0.050000 -0.350000
v -0.150000 -0.050000 -0.250000
v -0.150000 0.150000 -0.350000
v -0.150000 0.150000 0.250000
v -0.150000 -0.050000 0.150000
v -0.150000 -0.050000 0.250000
v -0.150000 0.150000 0.150000
v 0.150000 0.250000 -0.250000
v 0.150000 0.150000 -0.350000
v 0.150000 0.150000 -0.250000
v 0.150000 0.250000 -0.350000
v -0.250000 0.250000 0.150000
v -0.250000 0.150000 -0.150000
v -0.250000 -0.050000 0.150000
v -0.250000 -0.050000 -0.250000
v -0.250000 0.250000 -0.150000
v -0.250000 0.150000 -0.250000
v 0.150000 1.150000 0.050000
v 0.150000 0.950000 -0.050000
v 0.150000 0.650000 0.050000
v 0.150000 0.850000 -0.050000
v 0.150000 1.150000 -0.050000
v 0.150000 0.550000 -0.050000
v 0.150000 0.850000 -0.150000
v 0.150000 0.550000 0.050000
v 0.150000 0.950000 -0.150000
v 0.150000 0.650000 0.150000
v 0.150000 0.250000 0.150000
v 0.150000 0.250000 0.050000
v 0.150000 0.250000 -0.150000
v 0.150000 0.850000 -0.250000
v 0.050000 1.450000 0.050000
v 0.050000 1.250000 -0.050000
v 0.050000 1.150000 0.050000
v 0.050000 1.150000 -0.050000
v 0.050000 1.450000 -0.050000
v 0.050000 1.250000 -0.150000
v 0.050000 0.950000 -0.150000
v 0.050000 0.950000 -0.050000
v 0.050000 0.850000 0.150000
v 0.050000 0.650000 0.050000
v 0.050000 0.650000 0.150000
v 0.050000 0.850000 0.050000
v 0.250000 0.550000 -0.050000
v 0.250000 0.850000 -0.050000
v 0.250000 0.850000 -0.150000
v 0.250000 0.250000 -0.150000
v 0.250000 0.250000 0.050000
v 0.250000 0.550000 0.050000
v 0.250000 0.250000 -0.250000
v 0.250000 -0.050000 -0.350000
v 0.250000 -0.050000 -0.250000
v 0.250000 0.250000 -0.350000
v 0.250000 0.250000 0.250000
v 0.250000 -0.050000 0.150000
v 0.250000 -0.050000 0.250000
v 0.250000 0.250000 0.150000
v 0.350000 0.250000 0.150000
v 0.350000 -0.050000 -0.250000
v 0.350000 -0.050000 0.150000
v 0.350000 0.250000 -0.250000
vt 0.791410 0.616116
vt 0.788257 0.611389
vt 0.781952 0.616116
vt 0.781949 0.611388
vt 0.781949 0.616112
vt 0.767746 0.592443
vt 0.772470 0.592443
vt 0.767746 0.587719
vt 0.781954 0.616116
vt 0.791411 0.616116
vt 0.791411 0.611390
vt 0.781950 0.611387
vt 0.784314 0.616113
vt 0.789042 0.611387
vt 0.758277 0.606653
vt 0.758277 0.611378
vt 0.763002 0.606653
vt 0.772485 0.587715
vt 0.786676 0.592442
vt 0.786676 0.587715
vt 0.772481 0.592445
vt 0.791408 0.616115
vt 0.785500 0.611391
vt 0.785500 0.616115
vt 0.791411 0.611388
vt 0.767746 0.592443
vt 0.772470 0.592443
vt 0.767746 0.587719
vt 0.772470 0.592443
vt 0.767746 0.587719
vt 0.767746 0.592443
vt 0.772470 0.592443
vt 0.767746 0.587719
vt 0.772470 0.592443
vt 0.767746 0.587719
vt 0.791411 0.616116
vt 0.789046 0.611390
vt 0.784318 0.616116
vt 0.767738 0.592447
vt 0.758277 0.587716
vt 0.758277 0.597177
vt 0.767746 0.592443
vt 0.772470 0.592443
vt 0.767746 0.587719
vt 0.772470 0.592443
vt 0.767746 0.587719
vt 0.758277 0.606653
vt 0.758277 0.611378
vt 0.763002 0.606653
vt 0.758277 0.611378
vt 0.763002 0.606653
vt 0.791407 0.616116
vt 0.781950 0.611390
vt 0.781950 0.616116
vt 0.791411 0.611387
vt 0.781954 0.611387
vt 0.767746 0.592443
vt 0.772470 0.592443
vt 0.767746 0.587719
vt 0.772470 0.592443
vt 0.767746 0.587719
vt 0.765372 0.597178
vt 0.763007 0.590085
vt 0.758279 0.597178
vt 0.748807 0.601920
vt 0.744075 0.611382
vt 0.763003 0.611382
vt 0.767746 0.592443
vt 0.772470 0.592443
vt 0.767746 0.587719
vt 0.758277 0.606653
vt 0.758277 0.611378
vt 0.763002 0.606653
vt 0.777213 0.592442
vt 0.767750 0.587715
vt 0.791407 0.587715
vt 0.786682 0.611389
vt 0.784320 0.611389
vt 0.791406 0.616110
vt 0.772470 0.592443
vt 0.767746 0.592443
vt 0.767746 0.587719
vt 0.772470 0.592443
vt 0.767746 0.592443
vt 0.767746 0.587719
vt 0.758277 0.611378
vt 0.758277 0.606653
vt 0.763002 0.606653
vt 0.772470 0.592443
vt 0.767746 0.587719
vt 0.758277 0.611378
vt 0.763002 0.606653
vt 0.772470 0.592443
vt 0.767746 0.592443
vt 0.772470 0.592443
vt 0.767746 0.587719
vt 0.772470 0.592443
vt 0.767746 0.592443
vt 0.781950 0.611390
vt 0.791407 0.616116
vt 0.781950 0.616116
vt 0.791411 0.611387
vt 0.781954 0.611387
vt 0.772470 0.592443
vt 0.767746 0.592443
vt 0.767746 0.587719
vt 0.772470 0.592443
vt 0.767746 0.592443
vt 0.772470 0.592443
vt 0.767746 0.587719
vt 0.767746 0.592443
vt 0.767746 0.587719
vt 0.789046 0.616113
vt 0.784318 0.611387
vt 0.791411 0.611387
vt 0.781950 0.611390
vt 0.791407 0.616116
vt 0.781950 0.616116
vt 0.772470 0.592443
vt 0.767746 0.592443
vt 0.767746 0.587719
vt 0.772470 0.592443
vt 0.767746 0.587719
vt 0.758277 0.611378
vt 0.758277 0.606653
vt 0.763002 0.606653
vt 0.786680 0.616114
vt 0.791409 0.611387
vt 0.781951 0.611387
vt 0.772470 0.592443
vt 0.767746 0.592443
vt 0.767746 0.587719
vt 0.772470 0.592443
vt 0.767746 0.587719
vt 0.781949 0.611391
vt 0.789040 0.616116
vt 0.781949 0.616116
vt 0.789044 0.611387
vt 0.781953 0.611387
vt 0.758277 0.611378
vt 0.758277 0.606653
vt 0.763002 0.606653
vt 0.758277 0.611378
vt 0.763002 0.606653
vt 0.758278 0.597186
vt 0.772469 0.603491
vt 0.758278 0.603491
vt 0.772473 0.603491
vt 0.772473 0.597186
vt 0.758282 0.603491
vt 0.758277 0.611378
vt 0.758277 0.606653
vt 0.772470 0.592443
vt 0.767746 0.592443
vt 0.767746 0.587719
vt 0.758277 0.611378
vt 0.763002 0.606653
vt 0.758277 0.606653
vt 0.772470 0.592443
vt 0.767746 0.587719
vt 0.758277 0.611378
vt 0.758277 0.611378
vt 0.758277 0.606653
vt 0.758277 0.606653
vt 0.763002 0.606653
vt 0.758277 0.611378
vt 0.763002 0.606653
vt 0.758277 0.611378
vt 0.763002 0.606653
vt 0.767746 0.592443
vt 0.772470 0.592443
vt 0.784317 0.611387
vt 0.786681 0.616113
vt 0.791410 0.611387
vt 0.758277 0.606653
vt 0.763002 0.606653
vt 0.767746 0.592443
vt 0.772470 0.592443
vt 0.767746 0.587719
vt 0.791409 0.616116
vt 0.786680 0.611389
vt 0.781951 0.616116
vt 0.763002 0.606653
vt 0.767746 0.592443
vt 0.772470 0.592443
vt 0.767746 0.587719
vt 0.767746 0.587719
vt 0.767746 0.592443
vt 0.772470 0.592443
vt 0.767746 0.587719
vt 0.767746 0.592443
vt 0.767746 0.587719
vt 0.772470 0.592443
vt 0.767746 0.587719
vt 0.767746 0.592443
vt 0.772470 0.592443
vt 0.763002 0.606653
vt 0.772470 0.592443
vt 0.781951 0.616116
vt 0.786680 0.611389
vt 0.791409 0.616116
vt 0.767746 0.592443
vt 0.767746 0.587719
vt 0.767746 0.592443
vt 0.767746 0.587719
vt 0.767746 0.592443
vt 0.772470 0.592443
vt 0.767746 0.587719
vt 0.772470 0.592443
vt 0.767746 0.587719
vt 0.767746 0.592443
vt 0.772470 0.592443
vt 0.767746 0.587719
vt 0.767746 0.592443
vt 0.772470 0.592443
vt 0.767746 0.587719
vt 0.772470 0.592443
vt 0.767746 0.587719
vt 0.767746 0.592443
vt 0.767746 0.592443
vt 0.772470 0.592443
vt 0.767746 0.587719
vt 0.767746 0.587719
vt 0.767746 0.592443
vt 0.772470 0.592443
vt 0.767746 0.587719
vt 0.758277 0.606653
vt 0.758277 0.611378
vt 0.767746 0.592443
vt 0.767746 0.587719
vt 0.772470 0.592443
vt 0.767746 0.587719
vt 0.767746 0.587719
vt 0.767746 0.587719
vt 0.767746 0.592443
vt 0.767746 0.587719
vt 0.772470 0.592443
vt 0.767746 0.587719
vt 0.758277 0.611378
vt 0.763002 0.606653
vt 0.763002 0.606653
vt 0.767746 0.587719
vt 0.772470 0.592443
vt 0.772470 0.592443
vt 0.767746 0.587719
vt 0.767746 0.587719
vt 0.767746 0.587719
vt 0.791408 0.592444
vt 0.767751 0.592444
vt 0.781945 0.587717
vt 0.791411 0.611391
vt 0.791411 0.616116
vt 0.784320 0.616116
vt 0.758277 0.606653
vt 0.758277 0.611378
vt 0.763002 0.606653
vt 0.786680 0.611389
vt 0.767746 0.592443
vt 0.772470 0.592443
vt 0.784317 0.611391
vt 0.791411 0.611387
vt 0.758277 0.611378
vt 0.763002 0.606653
vt 0.781949 0.611391
vt 0.789040 0.616116
vt 0.781949 0.616116
vt 0.781953 0.611387
vt 0.789044 0.611387
vt 0.772470 0.592443
vt 0.767746 0.587719
vt 0.791411 0.616113
vt 0.791411 0.611387
vt 0.781954 0.611387
vt 0.772470 0.592443
vt 0.777213 0.592442
vt 0.767746 0.592443
vt 0.767746 0.587719
vt 0.767746 0.592443
vt 0.772470 0.592443
vt 0.772470 0.592443
vt 0.767746 0.592443
vt 0.781951 0.616116
vt 0.786679 0.611390
vt 0.789043 0.616116
vt 0.758277 0.606653
vt 0.763002 0.606653
vt 0.781949 0.611388
vt 0.791408 0.613752
vt 0.791411 0.611390
vt 0.781954 0.616116
vt 0.781949 0.616115
vt 0.781949 0.611387
vt 0.791408 0.612963
vt 0.781954 0.611387
vt 0.791411 0.611387
vt 0.791411 0.616113
vt 0.781954 0.616116
vt 0.791411 0.616116
vt 0.781950 0.611387
vt 0.781950 0.616113
vt 0.758277 0.606653
vt 0.763002 0.606653
vt 0.758277 0.611378
vt 0.758277 0.606653
vt 0.781950 0.616116
vt 0.789043 0.616116
vt 0.785497 0.611389
vt 0.758277 0.611378
vt 0.791411 0.616112
vt 0.767746 0.592443
vt 0.767746 0.592443
vt 0.767746 0.592443
vt 0.767746 0.587719
vt 0.781949 0.611391
vt 0.789044 0.611387
vt 0.781953 0.611387
vt 0.791411 0.616116
vt 0.781954 0.616116
vt 0.791411 0.611390
vt 0.791411 0.605469
vt 0.781953 0.606651
vt 0.763008 0.590873
vt 0.758285 0.597172
vt 0.767732 0.590873
vt 0.788257 0.616114
vt 0.767746 0.592443
vt 0.758277 0.606653
vt 0.758277 0.611378
vt 0.763002 0.606653
vt 0.767744 0.606657
vt 0.766168 0.616115
vt 0.772473 0.616115
vt 0.765378 0.606654
vt 0.772471 0.606654
vt 0.765378 0.616111
vt 0.786679 0.616113
vt 0.767746 0.592443
vn -1.0000 0.0000 0.0000
vn 1.0000 0.0000 0.0000
vn 0.0000 -1.0000 0.0000
vn 0.0000 1.0000 0.0000
vn 0.0000 0.0000 1.0000
vn 0.0000 0.0000 -1.0000
s off
f 1/1/1 2/2/1 3/3/1
f 2/2/1 4/4/1 3/5/1
f 1/6/1 5/7/1 2/8/1
f 4/9/1 2/10/1 6/11/1
f 7/12/1 4/13/1 6/14/1
f 4/15/1 7/16/1 8/17/1
f 9/18/1 10/19/1 11/20/1
f 9/18/1 3/21/1 10/19/1
f 7/22/1 12/23/1 13/24/1
f 7/22/1 14/25/1 12/23/1
f 15/26/1 16/27/1 17/28/1
f 15/26/1 18/29/1 16/30/1
f 19/31/1 20/32/1 21/33/1
f 19/31/1 22/34/1 20/35/1
f 23/36/1 24/37/1 25/38/1
f 24/39/1 26/40/1 25/41/1
f 23/42/1 27/43/1 24/44/1
f 24/39/1 28/45/1 26/46/1
f 29/47/1 30/48/1 31/49/1
f 29/47/1 32/50/1 30/51/1
f 33/52/1 34/53/1 35/54/1
f 33/52/1 36/55/1 34/56/1
f 37/57/1 38/58/1 39/59/1
f 37/57/1 40/60/1 38/61/1
f 41/62/1 42/63/1 43/64/1
f 42/65/1 44/66/1 43/67/1
f 41/68/1 45/69/1 42/70/1
f 42/71/1 46/72/1 44/73/1
f 48/74/2 47/75/2 49/76/2
f 50/77/2 48/78/2 49/79/2
f 51/80/2 47/81/2 48/82/2
f 50/83/2 49/84/2 52/85/2
f 53/86/2 48/87/2 50/88/2
f 52/89/2 49/84/2 54/90/2
f 55/91/2 48/87/2 53/92/2
f 49/93/2 56/94/2 54/90/2
f 54/95/2 56/94/2 57/96/2
f 58/97/2 54/98/2 57/96/2
f 37/99/2 53/100/2 59/101/2
f 60/102/2 53/100/2 37/103/2
f 62/104/2 61/105/2 63/106/2
f 64/107/2 62/108/2 63/106/2
f 65/109/2 61/105/2 62/110/2
f 62/104/2 64/111/2 66/112/2
f 64/113/2 67/114/2 66/115/2
f 67/116/2 64/117/2 68/118/2
f 70/119/2 69/120/2 71/121/2
f 72/122/2 69/120/2 70/123/2
f 74/124/2 73/125/2 75/126/2
f 73/127/2 76/128/2 75/129/2
f 73/130/2 77/131/2 76/132/2
f 78/133/2 77/131/2 73/134/2
f 80/135/2 79/136/2 81/137/2
f 82/138/2 79/136/2 80/139/2
f 84/140/2 83/141/2 85/142/2
f 86/143/2 83/141/2 84/144/2
f 88/145/2 87/146/2 89/147/2
f 90/148/2 87/149/2 88/150/2
f 81/151/3 89/152/3 84/144/3
f 81/153/3 84/154/3 31/155/3
f 88/156/3 89/152/3 81/157/3
f 30/48/3 81/158/3 31/49/3
f 31/159/3 84/154/3 34/160/3
f 80/161/3 81/158/3 30/51/3
f 31/162/3 34/163/3 44/73/3
f 84/140/3 85/164/3 34/165/3
f 44/166/3 34/163/3 43/167/3
f 34/168/3 85/164/3 35/169/3
f 12/170/4 39/171/4 38/61/4
f 32/172/4 12/173/4 38/174/4
f 12/175/4 32/50/4 29/176/4
f 13/177/4 12/178/4 29/179/4
f 13/180/4 29/181/4 42/182/4
f 29/47/4 46/72/4 42/183/4
f 21/184/4 36/185/4 33/186/4
f 21/184/4 20/32/4 36/187/4
f 87/188/4 77/189/4 86/190/4
f 86/191/4 77/189/4 58/192/4
f 87/188/4 90/193/4 77/194/4
f 86/191/4 58/97/4 57/96/4
f 90/195/4 76/196/4 77/194/4
f 83/141/4 86/143/4 57/197/4
f 90/195/4 79/198/4 76/132/4
f 83/199/4 57/200/4 19/201/4
f 76/202/4 79/198/4 37/203/4
f 57/204/4 22/34/4 19/205/4
f 79/206/4 40/60/4 37/203/4
f 76/202/4 37/207/4 59/208/4
f 79/206/4 82/209/4 40/210/4
f 11/211/4 25/212/4 41/213/4
f 25/214/4 45/69/4 41/213/4
f 11/211/4 10/215/4 25/216/4
f 25/214/4 26/217/4 45/218/4
f 78/219/4 52/89/4 54/90/4
f 78/219/4 73/130/4 52/85/4
f 56/94/4 70/119/4 71/121/4
f 56/94/4 49/93/4 70/123/4
f 17/220/4 14/221/4 7/222/4
f 17/220/4 16/27/4 14/223/4
f 8/224/4 28/45/4 24/44/4
f 8/224/4 7/225/4 28/226/4
f 74/227/4 53/86/4 50/88/4
f 74/227/4 75/228/4 53/92/4
f 53/229/4 18/29/4 15/230/4
f 53/229/4 60/231/4 18/232/4
f 69/120/4 3/21/4 9/233/4
f 69/120/4 72/122/4 3/234/4
f 3/235/4 27/43/4 23/236/4
f 3/235/4 4/237/4 27/238/4
f 48/87/4 67/239/4 68/240/4
f 48/87/4 55/91/4 67/241/4
f 47/81/4 64/107/4 63/106/4
f 47/81/4 51/80/4 64/242/4
f 62/108/4 6/243/4 2/8/4
f 62/108/4 66/244/4 6/245/4
f 61/105/4 5/7/4 1/246/4
f 61/105/4 65/109/4 5/247/4
f 77/131/5 54/95/5 58/192/5
f 77/131/5 78/133/5 54/90/5
f 49/84/5 72/122/5 70/123/5
f 49/248/5 47/249/5 72/250/5
f 47/251/5 63/252/5 72/253/5
f 3/254/5 72/255/5 63/256/5
f 3/3/5 63/257/5 1/1/5
f 63/258/5 61/259/5 1/246/5
f 10/260/5 23/36/5 25/38/5
f 10/260/5 3/261/5 23/36/5
f 73/125/5 50/262/5 52/263/5
f 73/125/5 74/124/5 50/88/5
f 89/264/5 86/265/5 84/266/5
f 89/267/5 87/268/5 86/265/5
f 57/204/5 71/269/5 22/270/5
f 11/271/5 22/272/5 71/273/5
f 57/204/5 56/274/5 71/121/5
f 11/20/5 71/275/5 9/18/5
f 20/276/5 22/34/5 11/277/5
f 71/278/5 69/279/5 9/233/5
f 20/276/5 11/280/5 36/187/5
f 36/281/5 11/280/5 41/213/5
f 43/282/5 36/283/5 41/284/5
f 43/285/5 34/168/5 36/286/5
f 85/287/5 21/288/5 35/54/5
f 21/289/5 33/52/5 35/290/5
f 85/291/5 83/292/5 21/293/5
f 83/294/5 19/295/5 21/296/5
f 53/297/6 76/128/6 59/298/6
f 75/299/6 76/128/6 53/300/6
f 67/239/6 53/301/6 15/302/6
f 15/303/6 7/304/6 67/241/6
f 55/91/6 53/301/6 67/241/6
f 7/305/6 6/306/6 67/307/6
f 17/308/6 7/304/6 15/302/6
f 66/115/6 67/114/6 6/309/6
f 26/217/6 13/177/6 42/70/6
f 45/69/6 26/310/6 42/70/6
f 7/225/6 13/177/6 26/46/6
f 28/45/6 7/311/6 26/46/6
f 64/107/6 48/312/6 68/313/6
f 51/80/6 48/312/6 64/242/6
f 5/7/6 62/108/6 2/8/6
f 65/109/6 62/108/6 5/247/6
f 27/43/6 8/224/6 24/44/6
f 4/237/6 8/224/6 27/238/6
f 79/136/6 88/314/6 81/137/6
f 90/315/6 88/316/6 79/136/6
f 39/317/6 12/318/6 37/319/6
f 12/320/6 14/25/6 37/321/6
f 16/322/6 37/323/6 14/324/6
f 60/102/6 37/103/6 16/325/6
f 18/29/6 60/326/6 16/30/6
f 46/72/6 31/327/6 44/73/6
f 29/328/6 31/327/6 46/329/6
f 38/330/6 80/331/6 30/332/6
f 32/333/6 38/334/6 30/335/6
f 82/138/6 80/139/6 38/336/6
f 40/60/6 82/337/6 38/61/6
