# Blender v2.92.0 OBJ File: 'InteractUV.blend'
# www.blender.org
o SpikeSmoll.Merged_Plane-tex.010
v -0.050000 0.650000 0.050000
v -0.050000 0.150000 -0.050000
v -0.050000 0.050000 0.050000
v -0.050000 0.050000 -0.150000
v -0.050000 0.650000 -0.050000
v -0.050000 0.150000 -0.150000
v -0.050000 0.050000 0.150000
v -0.050000 -0.050000 0.050000
v -0.050000 -0.050000 0.150000
v 0.050000 0.250000 -0.050000
v 0.050000 0.150000 -0.150000
v 0.050000 0.150000 -0.050000
v 0.050000 0.250000 -0.150000
v -0.150000 0.050000 0.050000
v -0.150000 -0.050000 -0.150000
v -0.150000 -0.050000 0.050000
v -0.150000 0.050000 -0.150000
v 0.150000 0.450000 0.050000
v 0.150000 0.250000 -0.050000
v 0.150000 0.050000 0.050000
v 0.150000 0.050000 -0.150000
v 0.150000 0.450000 -0.050000
v 0.150000 0.250000 -0.150000
v 0.150000 0.050000 0.150000
v 0.150000 -0.050000 0.050000
v 0.150000 -0.050000 0.150000
v 0.050000 0.650000 0.050000
v 0.050000 0.450000 -0.050000
v 0.050000 0.450000 0.050000
v 0.050000 0.650000 -0.050000
v 0.250000 0.050000 0.050000
v 0.250000 -0.050000 -0.150000
v 0.250000 -0.050000 0.050000
v 0.250000 0.050000 -0.150000
vt 0.830956 0.587688
vt 0.838844 0.592417
vt 0.840421 0.587688
vt 0.824637 0.592419
vt 0.829364 0.592419
vt 0.824637 0.587692
vt 0.823051 0.592417
vt 0.823051 0.587688
vt 0.815166 0.587688
vt 0.829364 0.592419
vt 0.824637 0.587692
vt 0.810424 0.592419
vt 0.815152 0.592419
vt 0.810424 0.587692
vt 0.815152 0.592419
vt 0.810424 0.587692
vt 0.824637 0.592419
vt 0.829364 0.592419
vt 0.824637 0.587692
vt 0.829364 0.592419
vt 0.824637 0.587692
vt 0.810424 0.592419
vt 0.815152 0.592419
vt 0.810424 0.587692
vt 0.815152 0.592419
vt 0.810424 0.587692
vt 0.818317 0.587690
vt 0.821471 0.592420
vt 0.815162 0.592420
vt 0.800949 0.601894
vt 0.810416 0.597160
vt 0.800949 0.592427
vt 0.824630 0.587688
vt 0.824630 0.592417
vt 0.815166 0.587688
vt 0.824630 0.587688
vt 0.824630 0.592417
vt 0.815166 0.587688
vt 0.829364 0.592419
vt 0.824637 0.592419
vt 0.824637 0.587692
vt 0.829364 0.592419
vt 0.824637 0.587692
vt 0.829364 0.592419
vt 0.824637 0.592419
vt 0.824637 0.587692
vt 0.829364 0.592419
vt 0.824637 0.587692
vt 0.815166 0.592420
vt 0.824630 0.587690
vt 0.824630 0.592420
vt 0.815162 0.587688
vt 0.824630 0.587688
vt 0.824630 0.592417
vt 0.815166 0.587688
vt 0.824626 0.588871
vt 0.810415 0.601893
vt 0.805685 0.601893
vt 0.803319 0.592432
vt 0.810424 0.592419
vt 0.824630 0.592417
vt 0.815166 0.587688
vt 0.815162 0.592420
vt 0.815166 0.592420
vt 0.824630 0.592420
vt 0.815162 0.587690
vt 0.815162 0.592420
vt 0.824630 0.587688
vt 0.810424 0.592419
vt 0.810424 0.587692
vt 0.815152 0.592419
vt 0.810424 0.587692
vt 0.824637 0.592419
vt 0.824637 0.587692
vt 0.824637 0.587692
vt 0.824637 0.587692
vt 0.829364 0.592419
vt 0.824637 0.587692
vt 0.829364 0.592419
vt 0.829364 0.592419
vt 0.824637 0.587692
vt 0.824637 0.587692
vt 0.829364 0.592419
vt 0.812792 0.592427
vt 0.822260 0.597160
vt 0.812792 0.601893
vt 0.834110 0.592418
vt 0.815165 0.587688
vt 0.821472 0.587688
vt 0.821472 0.592416
vt 0.824637 0.592419
vt 0.829364 0.592419
vt 0.815152 0.592419
vt 0.815162 0.587690
vt 0.824630 0.587688
vt 0.824626 0.592420
vt 0.815162 0.592420
vt 0.810424 0.592419
vt 0.810424 0.587692
vt 0.815163 0.592420
vt 0.823050 0.592420
vt 0.819895 0.587690
vt 0.815152 0.592419
vt 0.810424 0.587692
vt 0.810424 0.592419
vt 0.810424 0.592419
vt 0.815152 0.592419
vt 0.810424 0.587692
vt 0.810424 0.592419
vt 0.819896 0.587690
vt 0.824628 0.592420
vt 0.824637 0.592419
vt 0.819896 0.592418
vt 0.824637 0.592419
vn -1.0000 0.0000 0.0000
vn 1.0000 0.0000 0.0000
vn 0.0000 -1.0000 0.0000
vn 0.0000 1.0000 0.0000
vn 0.0000 0.0000 1.0000
vn 0.0000 0.0000 -1.0000
s off
f 1/1/1 2/2/1 3/3/1
f 2/4/1 4/5/1 3/6/1
f 1/7/1 5/8/1 2/9/1
f 2/4/1 6/10/1 4/11/1
f 7/12/1 8/13/1 9/14/1
f 7/12/1 3/15/1 8/16/1
f 10/17/1 11/18/1 12/19/1
f 10/17/1 13/20/1 11/21/1
f 14/22/1 15/23/1 16/24/1
f 14/22/1 17/25/1 15/26/1
f 19/27/2 18/28/2 20/29/2
f 21/30/2 19/31/2 20/32/2
f 22/33/2 18/34/2 19/35/2
f 23/36/2 19/37/2 21/38/2
f 25/39/2 24/40/2 26/41/2
f 20/42/2 24/40/2 25/43/2
f 28/44/2 27/45/2 29/46/2
f 30/47/2 27/45/2 28/48/2
f 32/49/2 31/50/2 33/51/2
f 34/52/2 31/50/2 32/49/2
f 33/53/3 25/54/3 32/55/3
f 25/56/3 15/23/3 32/55/3
f 25/57/3 8/58/3 15/59/3
f 15/23/3 8/60/3 16/24/3
f 25/43/3 26/61/3 8/62/3
f 8/62/3 26/61/3 9/63/3
f 31/50/4 21/64/4 20/65/4
f 31/50/4 34/52/4 21/64/4
f 24/40/4 3/66/4 7/67/4
f 24/40/4 20/68/4 3/66/4
f 3/69/4 17/25/4 14/70/4
f 3/69/4 4/71/4 17/72/4
f 12/73/4 6/10/4 2/74/4
f 12/73/4 11/18/4 6/75/4
f 19/37/4 13/20/4 10/76/4
f 19/37/4 23/77/4 13/78/4
f 18/34/4 28/44/4 29/46/4
f 18/34/4 22/79/4 28/48/4
f 27/45/4 5/80/4 1/81/4
f 27/45/4 30/47/4 5/82/4
f 33/51/5 20/42/5 25/43/5
f 33/51/5 31/83/5 20/68/5
f 20/84/5 29/85/5 3/86/5
f 29/87/5 1/1/5 3/3/5
f 20/88/5 18/89/5 29/90/5
f 29/91/5 27/92/5 1/81/5
f 8/60/5 14/93/5 16/24/5
f 8/60/5 3/15/5 14/70/5
f 26/61/5 7/94/5 9/63/5
f 26/61/5 24/95/5 7/94/5
f 28/96/6 19/35/6 10/97/6
f 10/97/6 2/98/6 28/99/6
f 22/33/6 19/35/6 28/96/6
f 2/100/6 5/101/6 28/102/6
f 12/103/6 2/98/6 10/104/6
f 30/47/6 28/96/6 5/82/6
f 21/64/6 32/105/6 15/26/6
f 4/71/6 21/106/6 15/26/6
f 34/107/6 32/105/6 21/108/6
f 17/25/6 4/109/6 15/26/6
f 11/110/6 21/64/6 4/111/6
f 6/10/6 11/112/6 4/11/6
f 21/38/6 11/113/6 23/36/6
f 13/20/6 23/114/6 11/21/6
